<svg width="1280" height="640" viewBox="0 0 1280 640" fill="none" xmlns="http://www.w3.org/2000/svg">
<rect width="1280" height="640" rx="32" fill="#BCE9FF"/>
<path d="M293.829 289.562H233.227C228.137 272.649 223.596 232.06 246.146 205M298.292 276.408L258.125 265.603C257.342 253.936 259.582 226.61 274.803 210.637M295.474 305.769L221.482 312.111C216.784 328.711 213.167 370.929 236.28 407.008M298.292 326.205L258.125 330.433C253.819 341.003 252.629 376.519 282.32 434.021M342.259 289.562H402.861C407.951 272.649 412.492 232.06 389.942 205M337.796 276.408L377.963 265.603C378.746 253.936 376.506 226.61 361.285 210.637M340.614 305.769L414.606 312.111C419.304 328.711 422.921 370.929 399.808 407.008M337.796 326.205L377.963 330.433C382.269 341.003 383.459 376.519 353.769 434.021" stroke="#231F20" stroke-width="12" stroke-linecap="round" stroke-linejoin="round"/>
<path d="M295.708 287.945C295.708 279.108 302.871 271.945 311.708 271.945H323.868C332.705 271.945 339.868 279.108 339.868 287.945V308.091C339.868 316.928 332.705 324.091 323.868 324.091H311.708C302.871 324.091 295.708 316.928 295.708 308.091V287.945Z" fill="#2D9CDB" stroke="#231F20" stroke-width="12" stroke-linecap="round" stroke-linejoin="round"/>
<path d="M317.554 402.438C339.678 402.438 357.613 384.503 357.613 362.379C357.613 340.254 339.678 322.319 317.554 322.319C295.429 322.319 277.494 340.254 277.494 362.379C277.494 384.503 295.429 402.438 317.554 402.438Z" fill="#FBA026" stroke="#231F20" stroke-width="12"/>
<path d="M302.755 260.435C302.755 257.451 305.174 255.032 308.157 255.032C311.141 255.032 313.56 257.451 313.56 260.435V267.012C313.56 269.996 311.141 272.414 308.157 272.414C305.174 272.414 302.755 269.996 302.755 267.012V260.435Z" fill="#231F20"/>
<path d="M322.016 260.435C322.016 257.451 324.435 255.032 327.419 255.032C330.402 255.032 332.821 257.451 332.821 260.435V267.012C332.821 269.996 330.402 272.414 327.419 272.414C324.435 272.414 322.016 269.996 322.016 267.012V260.435Z" fill="#231F20"/>
<path d="M317.318 380.7C319.824 380.544 325.634 379.573 328.828 376.942" stroke="#231F20" stroke-width="12" stroke-linecap="round" stroke-linejoin="round"/>
<path d="M341.513 362.261C341.513 365.18 339.146 367.546 336.227 367.546C333.309 367.546 330.942 365.18 330.942 362.261C330.942 359.342 333.309 356.976 336.227 356.976C339.146 356.976 341.513 359.342 341.513 362.261Z" fill="#231F20"/>
<path d="M661.448 305.304C663.56 306.584 665.32 308.408 666.728 310.776C668.2 313.144 668.936 316.312 668.936 320.28C668.936 324.184 667.688 327.736 665.192 330.936C660.584 336.952 653.576 339.96 644.168 339.96C640.072 339.96 636.008 339.384 631.976 338.232C628.008 337.016 625.064 335.8 623.144 334.584L620.264 332.856L624.392 324.6C629 326.84 633.16 327.96 636.872 327.96C640.584 327.96 642.44 326.776 642.44 324.408C642.44 323.064 641.704 321.816 640.232 320.664C638.824 319.448 637.064 318.296 634.952 317.208C632.904 316.12 630.824 314.872 628.712 313.464C626.664 311.992 624.904 309.976 623.432 307.416C622.024 304.792 621.32 301.752 621.32 298.296C621.32 292.152 623.656 287.48 628.328 284.28C633.064 281.08 638.76 279.48 645.416 279.48C649.384 279.48 653.096 279.96 656.552 280.92C660.072 281.88 662.568 282.84 664.04 283.8L666.344 285.24L662.6 293.4C659.336 291.992 656.04 291.288 652.712 291.288C649.448 291.288 647.816 292.536 647.816 295.032C647.816 296.376 648.52 297.592 649.928 298.68C651.4 299.768 653.16 300.824 655.208 301.848C657.32 302.808 659.4 303.96 661.448 305.304ZM708.465 339.96C704.881 339.96 701.905 339.128 699.536 337.464C697.425 335.928 695.793 334.36 694.641 332.76L693.393 355.416H676.977L674.193 293.496H694.833L695.889 298.872C696.209 298.36 696.689 297.752 697.329 297.048C698.033 296.28 699.473 295.288 701.649 294.072C703.889 292.792 706.193 292.152 708.561 292.152C710.929 292.152 713.137 292.504 715.185 293.208C717.297 293.912 719.345 295.064 721.329 296.664C723.377 298.2 725.009 300.568 726.225 303.768C727.505 306.968 728.145 310.776 728.145 315.192C728.145 323.256 726.321 329.4 722.673 333.624C719.025 337.848 714.289 339.96 708.465 339.96ZM702.609 305.112C698.385 305.112 696.273 308.952 696.273 316.632C696.273 319.32 696.721 321.688 697.617 323.736C698.577 325.784 699.985 326.808 701.841 326.808C703.697 326.808 705.105 326.136 706.065 324.792C707.537 322.744 708.273 320.024 708.273 316.632C708.273 308.952 706.385 305.112 702.609 305.112ZM756.291 294.84L757.923 294.264L754.659 339H736.515L733.443 294.264C737.091 295.736 740.963 296.472 745.059 296.472C749.219 296.472 752.963 295.928 756.291 294.84ZM745.635 292.248C742.435 292.248 739.747 291.288 737.571 289.368C735.395 287.448 734.307 284.952 734.307 281.88C734.307 278.744 735.363 276.248 737.475 274.392C739.651 272.472 742.339 271.512 745.539 271.512C748.803 271.512 751.523 272.472 753.699 274.392C755.875 276.312 756.963 278.808 756.963 281.88C756.963 284.952 755.875 287.448 753.699 289.368C751.523 291.288 748.835 292.248 745.635 292.248ZM763.244 315.192C763.244 310.776 763.852 306.968 765.068 303.768C766.348 300.568 768.012 298.168 770.06 296.568C773.836 293.624 778.028 292.152 782.636 292.152C784.94 292.152 787.052 292.632 788.972 293.592C790.956 294.488 792.332 295.416 793.1 296.376L794.252 297.72L793.484 276.696H815.372L812.78 339H798.38L796.748 332.76C792.908 337.496 788.172 339.864 782.54 339.864C776.972 339.928 772.364 337.848 768.716 333.624C765.068 329.4 763.244 323.256 763.244 315.192ZM788.78 305.016C785.004 305.016 783.116 308.856 783.116 316.536C783.116 317.944 783.212 319.288 783.404 320.568C783.596 321.848 784.172 323.192 785.132 324.6C786.092 326.008 787.5 326.712 789.356 326.712C791.212 326.712 792.62 325.688 793.58 323.64C794.604 321.528 795.116 319.16 795.116 316.536C795.116 308.856 793.004 305.016 788.78 305.016ZM846.155 339.96C838.923 339.96 832.843 337.88 827.915 333.72C823.051 329.496 820.619 323.32 820.619 315.192C820.619 310.072 821.867 305.72 824.363 302.136C828.907 295.48 835.947 292.152 845.483 292.152C852.779 292.152 858.347 293.624 862.187 296.568C866.027 299.448 867.947 303.448 867.947 308.568C867.947 312.536 866.347 315.768 863.147 318.264C860.011 320.696 855.403 321.912 849.323 321.912C846.827 321.912 844.587 321.72 842.603 321.336L841.547 321.144C841.867 323.448 842.859 325.176 844.523 326.328C846.251 327.416 848.299 327.96 850.667 327.96C854.571 327.96 857.899 326.776 860.651 324.408L866.603 331.608C865.579 332.824 864.363 333.976 862.955 335.064C861.547 336.088 859.307 337.176 856.235 338.328C853.163 339.416 849.803 339.96 846.155 339.96ZM853.931 307.704C853.931 306.424 853.419 305.368 852.395 304.536C851.435 303.704 850.091 303.288 848.363 303.288C846.635 303.288 845.003 304.056 843.467 305.592C841.995 307.128 841.259 308.952 841.259 311.064C842.667 311.704 844.491 312.024 846.731 312.024C849.035 312.024 850.795 311.64 852.011 310.872C853.291 310.04 853.931 308.984 853.931 307.704ZM894.536 299.736C897.928 294.68 902.12 292.152 907.112 292.152C909.48 292.152 911.656 292.728 913.64 293.88L911.336 309.624C908.776 307.832 905.896 306.936 902.696 306.936C899.624 306.936 897.544 308.216 896.456 310.776C895.816 312.376 895.4 313.912 895.208 315.384L893.384 339H876.104L873.224 293.496H892.136L894.536 299.736Z" fill="#231F20"/>
<path d="M637.43 213.246L633.811 209.626L633.826 235.789L633.869 237.012C633.887 237.587 633.994 238.236 634.172 238.909L662.851 249.022L670.02 245.846L670.022 245.837L637.43 213.246Z" fill="#00D2B8"/>
<path d="M634.171 238.909L634.173 238.911C634.171 238.899 634.165 238.886 634.165 238.874C634.165 238.886 634.167 238.897 634.171 238.909ZM670.019 245.846L662.85 249.022L634.173 238.911C634.721 241.013 635.933 243.375 637.238 244.667L646.597 253.973L667.407 254L670.022 245.837L670.019 245.846Z" fill="#55DDCA"/>
<path d="M622.664 226.463C621.737 227.452 622.198 229.492 623.69 230.996L630.125 237.484L634.172 238.909C633.994 238.236 633.887 237.587 633.869 237.012L633.826 235.789L633.81 209.626L622.664 226.463Z" fill="#0081C6"/>
<path d="M663.086 209.962C662.413 209.79 661.768 209.684 661.183 209.666L659.891 209.621L633.811 209.625L670.026 245.837H670.029L673.21 238.661L663.086 209.962Z" fill="#0079B3"/>
<path d="M663.053 209.955C663.067 209.958 663.078 209.962 663.087 209.964L663.086 209.962C663.078 209.958 663.067 209.958 663.053 209.955ZM668.838 213.035C667.524 211.71 665.193 210.505 663.087 209.964L673.209 238.661L670.028 245.837H670.025L677.798 243.355L677.814 222.045L668.838 213.035Z" fill="#00A4E4"/>
<path d="M661.668 205.94L655.182 199.501C653.681 198.015 651.64 197.552 650.653 198.476L633.811 209.625L659.891 209.621L661.183 209.666C661.768 209.684 662.413 209.79 663.086 209.962L661.668 205.94Z" fill="#00D2B8"/>
<path d="M634.996 397C634.18 395.008 633.412 393.208 632.692 391.6C631.972 389.968 631.276 388.444 630.604 387.028C629.956 385.612 629.308 384.28 628.66 383.032C628.012 381.76 627.352 380.488 626.68 379.216V397H623.98V374.716H627.004C627.988 376.516 628.84 378.088 629.56 379.432C630.304 380.776 630.976 382.084 631.576 383.356C632.2 384.604 632.8 385.9 633.376 387.244C633.952 388.564 634.6 390.1 635.32 391.852V374.716H638.02V397H634.996ZM649.324 379.9C651.58 379.9 653.32 380.608 654.544 382.024C655.768 383.416 656.38 385.54 656.38 388.396V389.44H644.428C644.548 391.168 645.112 392.488 646.12 393.4C647.152 394.288 648.592 394.732 650.44 394.732C651.496 394.732 652.396 394.648 653.14 394.48C653.884 394.312 654.448 394.132 654.832 393.94L655.228 396.46C654.868 396.652 654.22 396.856 653.284 397.072C652.348 397.288 651.292 397.396 650.116 397.396C648.676 397.396 647.404 397.18 646.3 396.748C645.22 396.292 644.32 395.68 643.6 394.912C642.88 394.144 642.34 393.232 641.98 392.176C641.62 391.096 641.44 389.932 641.44 388.684C641.44 387.196 641.668 385.9 642.124 384.796C642.58 383.692 643.18 382.78 643.924 382.06C644.668 381.34 645.508 380.8 646.444 380.44C647.38 380.08 648.34 379.9 649.324 379.9ZM653.356 387.028C653.356 385.612 652.984 384.496 652.24 383.68C651.496 382.84 650.512 382.42 649.288 382.42C648.592 382.42 647.956 382.552 647.38 382.816C646.828 383.08 646.348 383.428 645.94 383.86C645.532 384.292 645.208 384.784 644.968 385.336C644.728 385.888 644.572 386.452 644.5 387.028H653.356ZM674.92 380.296C674.488 381.856 673.996 383.392 673.444 384.904C672.892 386.392 672.328 387.856 671.752 389.296C671.176 390.712 670.588 392.068 669.988 393.364C669.388 394.66 668.812 395.872 668.26 397H665.56C664.432 394.744 663.292 392.176 662.14 389.296C660.988 386.416 659.968 383.416 659.08 380.296H662.32C662.608 381.352 662.932 382.468 663.292 383.644C663.676 384.82 664.072 385.996 664.48 387.172C664.888 388.348 665.296 389.488 665.704 390.592C666.136 391.672 666.556 392.644 666.964 393.508C667.372 392.644 667.792 391.672 668.224 390.592C668.68 389.488 669.124 388.348 669.556 387.172C669.988 385.996 670.396 384.82 670.78 383.644C671.188 382.468 671.536 381.352 671.824 380.296H674.92ZM685.324 379.9C687.58 379.9 689.32 380.608 690.544 382.024C691.768 383.416 692.38 385.54 692.38 388.396V389.44H680.428C680.548 391.168 681.112 392.488 682.12 393.4C683.152 394.288 684.592 394.732 686.44 394.732C687.496 394.732 688.396 394.648 689.14 394.48C689.884 394.312 690.448 394.132 690.832 393.94L691.228 396.46C690.868 396.652 690.22 396.856 689.284 397.072C688.348 397.288 687.292 397.396 686.116 397.396C684.676 397.396 683.404 397.18 682.3 396.748C681.22 396.292 680.32 395.68 679.6 394.912C678.88 394.144 678.34 393.232 677.98 392.176C677.62 391.096 677.44 389.932 677.44 388.684C677.44 387.196 677.668 385.9 678.124 384.796C678.58 383.692 679.18 382.78 679.924 382.06C680.668 381.34 681.508 380.8 682.444 380.44C683.38 380.08 684.34 379.9 685.324 379.9ZM689.356 387.028C689.356 385.612 688.984 384.496 688.24 383.68C687.496 382.84 686.512 382.42 685.288 382.42C684.592 382.42 683.956 382.552 683.38 382.816C682.828 383.08 682.348 383.428 681.94 383.86C681.532 384.292 681.208 384.784 680.968 385.336C680.728 385.888 680.572 386.452 680.5 387.028H689.356ZM697.852 397V381.196C700.3 380.356 702.772 379.936 705.268 379.936C706.036 379.936 706.768 379.972 707.464 380.044C708.16 380.092 708.928 380.212 709.768 380.404L709.228 383.032C708.46 382.816 707.776 382.684 707.176 382.636C706.6 382.564 705.964 382.528 705.268 382.528C703.804 382.528 702.316 382.732 700.804 383.14V397H697.852ZM742.348 397C741.988 396.184 741.676 395.44 741.412 394.768C741.148 394.096 740.884 393.424 740.62 392.752C740.38 392.08 740.128 391.384 739.864 390.664C739.624 389.92 739.336 389.08 739 388.144C738.664 389.08 738.364 389.92 738.1 390.664C737.836 391.384 737.572 392.08 737.308 392.752C737.068 393.424 736.804 394.096 736.516 394.768C736.252 395.44 735.94 396.184 735.58 397H733.348C732.676 394.048 732.112 391.132 731.656 388.252C731.224 385.348 730.9 382.696 730.684 380.296H733.492C733.564 381.232 733.636 382.156 733.708 383.068C733.804 383.956 733.912 384.892 734.032 385.876C734.152 386.86 734.284 387.928 734.428 389.08C734.596 390.232 734.776 391.528 734.968 392.968C735.352 392.008 735.676 391.168 735.94 390.448C736.204 389.728 736.444 389.044 736.66 388.396C736.876 387.748 737.08 387.088 737.272 386.416C737.488 385.744 737.716 384.988 737.956 384.148H740.188C740.428 384.988 740.644 385.744 740.836 386.416C741.028 387.088 741.232 387.748 741.448 388.396C741.664 389.044 741.892 389.728 742.132 390.448C742.372 391.168 742.672 391.996 743.032 392.932C743.248 391.612 743.44 390.388 743.608 389.26C743.776 388.132 743.92 387.076 744.04 386.092C744.16 385.084 744.268 384.112 744.364 383.176C744.46 382.24 744.544 381.28 744.616 380.296H747.316C747.196 381.496 747.052 382.78 746.884 384.148C746.716 385.516 746.512 386.92 746.272 388.36C746.032 389.8 745.768 391.264 745.48 392.752C745.192 394.216 744.892 395.632 744.58 397H742.348ZM764.56 388.648C764.56 389.968 764.368 391.168 763.984 392.248C763.624 393.304 763.108 394.216 762.436 394.984C761.764 395.752 760.96 396.352 760.024 396.784C759.088 397.192 758.068 397.396 756.964 397.396C755.884 397.396 754.876 397.192 753.94 396.784C753.028 396.352 752.236 395.752 751.564 394.984C750.892 394.216 750.364 393.304 749.98 392.248C749.62 391.168 749.44 389.968 749.44 388.648C749.44 387.328 749.62 386.128 749.98 385.048C750.364 383.968 750.892 383.056 751.564 382.312C752.236 381.544 753.028 380.956 753.94 380.548C754.876 380.116 755.884 379.9 756.964 379.9C758.068 379.9 759.088 380.116 760.024 380.548C760.96 380.956 761.764 381.544 762.436 382.312C763.108 383.056 763.624 383.968 763.984 385.048C764.368 386.128 764.56 387.328 764.56 388.648ZM761.5 388.648C761.5 386.752 761.092 385.264 760.276 384.184C759.46 383.08 758.356 382.528 756.964 382.528C755.596 382.528 754.504 383.08 753.688 384.184C752.896 385.264 752.5 386.752 752.5 388.648C752.5 390.52 752.896 392.008 753.688 393.112C754.504 394.192 755.596 394.732 756.964 394.732C758.356 394.732 759.46 394.192 760.276 393.112C761.092 392.008 761.5 390.52 761.5 388.648ZM769.852 397V381.196C772.3 380.356 774.772 379.936 777.268 379.936C778.036 379.936 778.768 379.972 779.464 380.044C780.16 380.092 780.928 380.212 781.768 380.404L781.228 383.032C780.46 382.816 779.776 382.684 779.176 382.636C778.6 382.564 777.964 382.528 777.268 382.528C775.804 382.528 774.316 382.732 772.804 383.14V397H769.852ZM787.852 397V381.196C790.3 380.356 792.772 379.936 795.268 379.936C796.036 379.936 796.768 379.972 797.464 380.044C798.16 380.092 798.928 380.212 799.768 380.404L799.228 383.032C798.46 382.816 797.776 382.684 797.176 382.636C796.6 382.564 795.964 382.528 795.268 382.528C793.804 382.528 792.316 382.732 790.804 383.14V397H787.852ZM803.836 400.132C804.052 400.252 804.352 400.348 804.736 400.42C805.144 400.492 805.516 400.528 805.852 400.528C807.028 400.528 807.94 400.264 808.588 399.736C809.26 399.232 809.872 398.392 810.424 397.216C809.08 394.672 807.82 391.948 806.644 389.044C805.468 386.116 804.496 383.2 803.728 380.296H806.968C807.208 381.256 807.484 382.3 807.796 383.428C808.132 384.532 808.504 385.672 808.912 386.848C809.32 388.024 809.752 389.212 810.208 390.412C810.688 391.588 811.192 392.716 811.72 393.796C812.104 392.692 812.464 391.6 812.8 390.52C813.136 389.44 813.448 388.36 813.736 387.28C814.024 386.176 814.312 385.06 814.6 383.932C814.888 382.78 815.188 381.568 815.5 380.296H818.596C817.828 383.416 816.964 386.44 816.004 389.368C815.068 392.296 814.06 395.008 812.98 397.504C812.572 398.464 812.128 399.292 811.648 399.988C811.192 400.684 810.688 401.26 810.136 401.716C809.584 402.172 808.96 402.508 808.264 402.724C807.568 402.94 806.776 403.048 805.888 403.048C805.432 403.048 804.928 402.988 804.376 402.868C803.848 402.748 803.488 402.64 803.296 402.544L803.836 400.132ZM847.18 394.876C847.924 394.876 848.584 394.852 849.16 394.804C849.76 394.756 850.252 394.696 850.636 394.624V389.656C850.252 389.536 849.784 389.44 849.232 389.368C848.704 389.296 848.14 389.26 847.54 389.26C846.988 389.26 846.448 389.308 845.92 389.404C845.392 389.476 844.924 389.62 844.516 389.836C844.108 390.052 843.772 390.34 843.508 390.7C843.244 391.036 843.112 391.468 843.112 391.996C843.112 393.076 843.472 393.832 844.192 394.264C844.936 394.672 845.932 394.876 847.18 394.876ZM846.892 379.9C848.14 379.9 849.184 380.056 850.024 380.368C850.888 380.68 851.584 381.112 852.112 381.664C852.64 382.216 853.012 382.888 853.228 383.68C853.444 384.472 853.552 385.336 853.552 386.272V396.712C852.856 396.832 851.932 396.976 850.78 397.144C849.652 397.312 848.488 397.396 847.288 397.396C846.376 397.396 845.488 397.312 844.624 397.144C843.76 397 842.992 396.736 842.32 396.352C841.648 395.944 841.108 395.392 840.7 394.696C840.292 394 840.088 393.112 840.088 392.032C840.088 391.072 840.292 390.268 840.7 389.62C841.132 388.948 841.672 388.408 842.32 388C842.992 387.592 843.748 387.304 844.588 387.136C845.452 386.944 846.316 386.848 847.18 386.848C848.356 386.848 849.508 386.98 850.636 387.244V386.416C850.636 385.912 850.576 385.432 850.456 384.976C850.36 384.496 850.156 384.064 849.844 383.68C849.556 383.296 849.148 382.996 848.62 382.78C848.116 382.54 847.456 382.42 846.64 382.42C845.608 382.42 844.708 382.492 843.94 382.636C843.172 382.78 842.584 382.924 842.176 383.068L841.816 380.62C842.224 380.428 842.896 380.26 843.832 380.116C844.792 379.972 845.812 379.9 846.892 379.9ZM861.544 380.908C861.904 380.692 862.42 380.476 863.092 380.26C863.788 380.02 864.556 379.9 865.396 379.9C866.524 379.9 867.532 380.116 868.42 380.548C869.308 380.98 870.052 381.58 870.652 382.348C871.276 383.116 871.744 384.04 872.056 385.12C872.392 386.176 872.56 387.352 872.56 388.648C872.56 389.992 872.368 391.204 871.984 392.284C871.6 393.364 871.06 394.288 870.364 395.056C869.668 395.8 868.828 396.376 867.844 396.784C866.86 397.192 865.768 397.396 864.568 397.396C863.248 397.396 862.072 397.3 861.04 397.108C860.008 396.916 859.18 396.724 858.556 396.532V372.556L861.544 372.052V380.908ZM861.544 394.408C862 394.528 862.456 394.624 862.912 394.696C863.368 394.744 863.8 394.768 864.208 394.768C865.864 394.768 867.16 394.264 868.096 393.256C869.032 392.224 869.5 390.688 869.5 388.648C869.5 387.784 869.416 386.98 869.248 386.236C869.08 385.468 868.816 384.82 868.456 384.292C868.096 383.74 867.628 383.308 867.052 382.996C866.5 382.684 865.828 382.528 865.036 382.528C864.34 382.528 863.668 382.672 863.02 382.96C862.372 383.224 861.88 383.512 861.544 383.824V394.408ZM890.56 388.648C890.56 389.968 890.368 391.168 889.984 392.248C889.624 393.304 889.108 394.216 888.436 394.984C887.764 395.752 886.96 396.352 886.024 396.784C885.088 397.192 884.068 397.396 882.964 397.396C881.884 397.396 880.876 397.192 879.94 396.784C879.028 396.352 878.236 395.752 877.564 394.984C876.892 394.216 876.364 393.304 875.98 392.248C875.62 391.168 875.44 389.968 875.44 388.648C875.44 387.328 875.62 386.128 875.98 385.048C876.364 383.968 876.892 383.056 877.564 382.312C878.236 381.544 879.028 380.956 879.94 380.548C880.876 380.116 881.884 379.9 882.964 379.9C884.068 379.9 885.088 380.116 886.024 380.548C886.96 380.956 887.764 381.544 888.436 382.312C889.108 383.056 889.624 383.968 889.984 385.048C890.368 386.128 890.56 387.328 890.56 388.648ZM887.5 388.648C887.5 386.752 887.092 385.264 886.276 384.184C885.46 383.08 884.356 382.528 882.964 382.528C881.596 382.528 880.504 383.08 879.688 384.184C878.896 385.264 878.5 386.752 878.5 388.648C878.5 390.52 878.896 392.008 879.688 393.112C880.504 394.192 881.596 394.732 882.964 394.732C884.356 394.732 885.46 394.192 886.276 393.112C887.092 392.008 887.5 390.52 887.5 388.648ZM907.444 396.532C906.796 396.7 905.932 396.88 904.852 397.072C903.796 397.264 902.548 397.36 901.108 397.36C899.836 397.36 898.78 397.18 897.94 396.82C897.1 396.436 896.416 395.908 895.888 395.236C895.36 394.54 894.988 393.724 894.772 392.788C894.556 391.852 894.448 390.82 894.448 389.692V380.296H897.4V389.044C897.4 391.108 897.7 392.572 898.3 393.436C898.924 394.3 899.956 394.732 901.396 394.732C901.708 394.732 902.02 394.72 902.332 394.696C902.668 394.672 902.98 394.648 903.268 394.624C903.556 394.576 903.808 394.54 904.024 394.516C904.24 394.468 904.384 394.432 904.456 394.408V380.296H907.444V396.532ZM918.748 380.296H925.804V382.78H918.748V390.556C918.748 391.396 918.808 392.08 918.928 392.608C919.048 393.136 919.24 393.568 919.504 393.904C919.792 394.216 920.152 394.432 920.584 394.552C921.016 394.672 921.544 394.732 922.168 394.732C923.032 394.732 923.728 394.66 924.256 394.516C924.784 394.372 925.288 394.18 925.768 393.94L926.2 396.46C925.864 396.604 925.324 396.796 924.58 397.036C923.86 397.276 922.96 397.396 921.88 397.396C920.632 397.396 919.612 397.252 918.82 396.964C918.028 396.676 917.404 396.244 916.948 395.668C916.516 395.092 916.216 394.384 916.048 393.544C915.88 392.68 915.796 391.684 915.796 390.556V382.78H912.268V380.296H915.796V375.616L918.748 375.112V380.296ZM955.18 394.876C955.924 394.876 956.584 394.852 957.16 394.804C957.76 394.756 958.252 394.696 958.636 394.624V389.656C958.252 389.536 957.784 389.44 957.232 389.368C956.704 389.296 956.14 389.26 955.54 389.26C954.988 389.26 954.448 389.308 953.92 389.404C953.392 389.476 952.924 389.62 952.516 389.836C952.108 390.052 951.772 390.34 951.508 390.7C951.244 391.036 951.112 391.468 951.112 391.996C951.112 393.076 951.472 393.832 952.192 394.264C952.936 394.672 953.932 394.876 955.18 394.876ZM954.892 379.9C956.14 379.9 957.184 380.056 958.024 380.368C958.888 380.68 959.584 381.112 960.112 381.664C960.64 382.216 961.012 382.888 961.228 383.68C961.444 384.472 961.552 385.336 961.552 386.272V396.712C960.856 396.832 959.932 396.976 958.78 397.144C957.652 397.312 956.488 397.396 955.288 397.396C954.376 397.396 953.488 397.312 952.624 397.144C951.76 397 950.992 396.736 950.32 396.352C949.648 395.944 949.108 395.392 948.7 394.696C948.292 394 948.088 393.112 948.088 392.032C948.088 391.072 948.292 390.268 948.7 389.62C949.132 388.948 949.672 388.408 950.32 388C950.992 387.592 951.748 387.304 952.588 387.136C953.452 386.944 954.316 386.848 955.18 386.848C956.356 386.848 957.508 386.98 958.636 387.244V386.416C958.636 385.912 958.576 385.432 958.456 384.976C958.36 384.496 958.156 384.064 957.844 383.68C957.556 383.296 957.148 382.996 956.62 382.78C956.116 382.54 955.456 382.42 954.64 382.42C953.608 382.42 952.708 382.492 951.94 382.636C951.172 382.78 950.584 382.924 950.176 383.068L949.816 380.62C950.224 380.428 950.896 380.26 951.832 380.116C952.792 379.972 953.812 379.9 954.892 379.9ZM976.636 392.824C976.636 392.224 976.384 391.732 975.88 391.348C975.4 390.964 974.788 390.628 974.044 390.34C973.324 390.052 972.532 389.776 971.668 389.512C970.804 389.224 970 388.876 969.256 388.468C968.536 388.06 967.924 387.556 967.42 386.956C966.94 386.356 966.7 385.576 966.7 384.616C966.7 383.272 967.24 382.156 968.32 381.268C969.424 380.356 971.14 379.9 973.468 379.9C974.38 379.9 975.316 379.972 976.276 380.116C977.26 380.236 978.1 380.404 978.796 380.62L978.256 383.284C978.064 383.188 977.8 383.092 977.464 382.996C977.128 382.876 976.744 382.78 976.312 382.708C975.88 382.612 975.412 382.54 974.908 382.492C974.428 382.444 973.96 382.42 973.504 382.42C970.912 382.42 969.616 383.128 969.616 384.544C969.616 385.048 969.856 385.48 970.336 385.84C970.84 386.176 971.464 386.488 972.208 386.776C972.952 387.064 973.756 387.364 974.62 387.676C975.484 387.964 976.288 388.324 977.032 388.756C977.776 389.188 978.388 389.716 978.868 390.34C979.372 390.94 979.624 391.708 979.624 392.644C979.624 394.156 979.036 395.332 977.86 396.172C976.684 396.988 974.824 397.396 972.28 397.396C971.128 397.396 970.072 397.3 969.112 397.108C968.152 396.916 967.24 396.628 966.376 396.244L966.952 393.544C967.792 393.928 968.668 394.252 969.58 394.516C970.516 394.756 971.512 394.876 972.568 394.876C975.28 394.876 976.636 394.192 976.636 392.824ZM994.636 392.824C994.636 392.224 994.384 391.732 993.88 391.348C993.4 390.964 992.788 390.628 992.044 390.34C991.324 390.052 990.532 389.776 989.668 389.512C988.804 389.224 988 388.876 987.256 388.468C986.536 388.06 985.924 387.556 985.42 386.956C984.94 386.356 984.7 385.576 984.7 384.616C984.7 383.272 985.24 382.156 986.32 381.268C987.424 380.356 989.14 379.9 991.468 379.9C992.38 379.9 993.316 379.972 994.276 380.116C995.26 380.236 996.1 380.404 996.796 380.62L996.256 383.284C996.064 383.188 995.8 383.092 995.464 382.996C995.128 382.876 994.744 382.78 994.312 382.708C993.88 382.612 993.412 382.54 992.908 382.492C992.428 382.444 991.96 382.42 991.504 382.42C988.912 382.42 987.616 383.128 987.616 384.544C987.616 385.048 987.856 385.48 988.336 385.84C988.84 386.176 989.464 386.488 990.208 386.776C990.952 387.064 991.756 387.364 992.62 387.676C993.484 387.964 994.288 388.324 995.032 388.756C995.776 389.188 996.388 389.716 996.868 390.34C997.372 390.94 997.624 391.708 997.624 392.644C997.624 394.156 997.036 395.332 995.86 396.172C994.684 396.988 992.824 397.396 990.28 397.396C989.128 397.396 988.072 397.3 987.112 397.108C986.152 396.916 985.24 396.628 984.376 396.244L984.952 393.544C985.792 393.928 986.668 394.252 987.58 394.516C988.516 394.756 989.512 394.876 990.568 394.876C993.28 394.876 994.636 394.192 994.636 392.824ZM1009.32 379.9C1011.58 379.9 1013.32 380.608 1014.54 382.024C1015.77 383.416 1016.38 385.54 1016.38 388.396V389.44H1004.43C1004.55 391.168 1005.11 392.488 1006.12 393.4C1007.15 394.288 1008.59 394.732 1010.44 394.732C1011.5 394.732 1012.4 394.648 1013.14 394.48C1013.88 394.312 1014.45 394.132 1014.83 393.94L1015.23 396.46C1014.87 396.652 1014.22 396.856 1013.28 397.072C1012.35 397.288 1011.29 397.396 1010.12 397.396C1008.68 397.396 1007.4 397.18 1006.3 396.748C1005.22 396.292 1004.32 395.68 1003.6 394.912C1002.88 394.144 1002.34 393.232 1001.98 392.176C1001.62 391.096 1001.44 389.932 1001.44 388.684C1001.44 387.196 1001.67 385.9 1002.12 384.796C1002.58 383.692 1003.18 382.78 1003.92 382.06C1004.67 381.34 1005.51 380.8 1006.44 380.44C1007.38 380.08 1008.34 379.9 1009.32 379.9ZM1013.36 387.028C1013.36 385.612 1012.98 384.496 1012.24 383.68C1011.5 382.84 1010.51 382.42 1009.29 382.42C1008.59 382.42 1007.96 382.552 1007.38 382.816C1006.83 383.08 1006.35 383.428 1005.94 383.86C1005.53 384.292 1005.21 384.784 1004.97 385.336C1004.73 385.888 1004.57 386.452 1004.5 387.028H1013.36ZM1026.75 380.296H1033.8V382.78H1026.75V390.556C1026.75 391.396 1026.81 392.08 1026.93 392.608C1027.05 393.136 1027.24 393.568 1027.5 393.904C1027.79 394.216 1028.15 394.432 1028.58 394.552C1029.02 394.672 1029.54 394.732 1030.17 394.732C1031.03 394.732 1031.73 394.66 1032.26 394.516C1032.78 394.372 1033.29 394.18 1033.77 393.94L1034.2 396.46C1033.86 396.604 1033.32 396.796 1032.58 397.036C1031.86 397.276 1030.96 397.396 1029.88 397.396C1028.63 397.396 1027.61 397.252 1026.82 396.964C1026.03 396.676 1025.4 396.244 1024.95 395.668C1024.52 395.092 1024.22 394.384 1024.05 393.544C1023.88 392.68 1023.8 391.684 1023.8 390.556V382.78H1020.27V380.296H1023.8V375.616L1026.75 375.112V380.296ZM1048.64 392.824C1048.64 392.224 1048.38 391.732 1047.88 391.348C1047.4 390.964 1046.79 390.628 1046.04 390.34C1045.32 390.052 1044.53 389.776 1043.67 389.512C1042.8 389.224 1042 388.876 1041.26 388.468C1040.54 388.06 1039.92 387.556 1039.42 386.956C1038.94 386.356 1038.7 385.576 1038.7 384.616C1038.7 383.272 1039.24 382.156 1040.32 381.268C1041.42 380.356 1043.14 379.9 1045.47 379.9C1046.38 379.9 1047.32 379.972 1048.28 380.116C1049.26 380.236 1050.1 380.404 1050.8 380.62L1050.26 383.284C1050.06 383.188 1049.8 383.092 1049.46 382.996C1049.13 382.876 1048.74 382.78 1048.31 382.708C1047.88 382.612 1047.41 382.54 1046.91 382.492C1046.43 382.444 1045.96 382.42 1045.5 382.42C1042.91 382.42 1041.62 383.128 1041.62 384.544C1041.62 385.048 1041.86 385.48 1042.34 385.84C1042.84 386.176 1043.46 386.488 1044.21 386.776C1044.95 387.064 1045.76 387.364 1046.62 387.676C1047.48 387.964 1048.29 388.324 1049.03 388.756C1049.78 389.188 1050.39 389.716 1050.87 390.34C1051.37 390.94 1051.62 391.708 1051.62 392.644C1051.62 394.156 1051.04 395.332 1049.86 396.172C1048.68 396.988 1046.82 397.396 1044.28 397.396C1043.13 397.396 1042.07 397.3 1041.11 397.108C1040.15 396.916 1039.24 396.628 1038.38 396.244L1038.95 393.544C1039.79 393.928 1040.67 394.252 1041.58 394.516C1042.52 394.756 1043.51 394.876 1044.57 394.876C1047.28 394.876 1048.64 394.192 1048.64 392.824ZM631.18 430.876C631.924 430.876 632.584 430.852 633.16 430.804C633.76 430.756 634.252 430.696 634.636 430.624V425.656C634.252 425.536 633.784 425.44 633.232 425.368C632.704 425.296 632.14 425.26 631.54 425.26C630.988 425.26 630.448 425.308 629.92 425.404C629.392 425.476 628.924 425.62 628.516 425.836C628.108 426.052 627.772 426.34 627.508 426.7C627.244 427.036 627.112 427.468 627.112 427.996C627.112 429.076 627.472 429.832 628.192 430.264C628.936 430.672 629.932 430.876 631.18 430.876ZM630.892 415.9C632.14 415.9 633.184 416.056 634.024 416.368C634.888 416.68 635.584 417.112 636.112 417.664C636.64 418.216 637.012 418.888 637.228 419.68C637.444 420.472 637.552 421.336 637.552 422.272V432.712C636.856 432.832 635.932 432.976 634.78 433.144C633.652 433.312 632.488 433.396 631.288 433.396C630.376 433.396 629.488 433.312 628.624 433.144C627.76 433 626.992 432.736 626.32 432.352C625.648 431.944 625.108 431.392 624.7 430.696C624.292 430 624.088 429.112 624.088 428.032C624.088 427.072 624.292 426.268 624.7 425.62C625.132 424.948 625.672 424.408 626.32 424C626.992 423.592 627.748 423.304 628.588 423.136C629.452 422.944 630.316 422.848 631.18 422.848C632.356 422.848 633.508 422.98 634.636 423.244V422.416C634.636 421.912 634.576 421.432 634.456 420.976C634.36 420.496 634.156 420.064 633.844 419.68C633.556 419.296 633.148 418.996 632.62 418.78C632.116 418.54 631.456 418.42 630.64 418.42C629.608 418.42 628.708 418.492 627.94 418.636C627.172 418.78 626.584 418.924 626.176 419.068L625.816 416.62C626.224 416.428 626.896 416.26 627.832 416.116C628.792 415.972 629.812 415.9 630.892 415.9ZM652.456 431.452C652.12 431.644 651.604 431.848 650.908 432.064C650.212 432.28 649.408 432.388 648.496 432.388C647.512 432.388 646.588 432.232 645.724 431.92C644.884 431.584 644.14 431.092 643.492 430.444C642.868 429.772 642.364 428.932 641.98 427.924C641.62 426.892 641.44 425.68 641.44 424.288C641.44 423.064 641.608 421.948 641.944 420.94C642.304 419.908 642.808 419.02 643.456 418.276C644.128 417.532 644.944 416.956 645.904 416.548C646.864 416.116 647.956 415.9 649.18 415.9C650.62 415.9 651.844 416.008 652.852 416.224C653.884 416.416 654.748 416.608 655.444 416.8V431.704C655.444 434.296 654.784 436.168 653.464 437.32C652.168 438.472 650.2 439.048 647.56 439.048C646.48 439.048 645.496 438.964 644.608 438.796C643.744 438.628 642.976 438.424 642.304 438.184L642.844 435.556C643.468 435.82 644.176 436.036 644.968 436.204C645.784 436.372 646.672 436.456 647.632 436.456C649.36 436.456 650.596 436.108 651.34 435.412C652.084 434.716 652.456 433.588 652.456 432.028V431.452ZM652.456 418.924C652.168 418.828 651.772 418.744 651.268 418.672C650.764 418.576 650.08 418.528 649.216 418.528C647.68 418.528 646.504 419.056 645.688 420.112C644.896 421.168 644.5 422.572 644.5 424.324C644.5 425.284 644.608 426.112 644.824 426.808C645.064 427.48 645.376 428.044 645.76 428.5C646.168 428.932 646.624 429.256 647.128 429.472C647.632 429.664 648.172 429.76 648.748 429.76C649.492 429.76 650.188 429.652 650.836 429.436C651.508 429.22 652.048 428.968 652.456 428.68V418.924ZM667.18 430.876C667.924 430.876 668.584 430.852 669.16 430.804C669.76 430.756 670.252 430.696 670.636 430.624V425.656C670.252 425.536 669.784 425.44 669.232 425.368C668.704 425.296 668.14 425.26 667.54 425.26C666.988 425.26 666.448 425.308 665.92 425.404C665.392 425.476 664.924 425.62 664.516 425.836C664.108 426.052 663.772 426.34 663.508 426.7C663.244 427.036 663.112 427.468 663.112 427.996C663.112 429.076 663.472 429.832 664.192 430.264C664.936 430.672 665.932 430.876 667.18 430.876ZM666.892 415.9C668.14 415.9 669.184 416.056 670.024 416.368C670.888 416.68 671.584 417.112 672.112 417.664C672.64 418.216 673.012 418.888 673.228 419.68C673.444 420.472 673.552 421.336 673.552 422.272V432.712C672.856 432.832 671.932 432.976 670.78 433.144C669.652 433.312 668.488 433.396 667.288 433.396C666.376 433.396 665.488 433.312 664.624 433.144C663.76 433 662.992 432.736 662.32 432.352C661.648 431.944 661.108 431.392 660.7 430.696C660.292 430 660.088 429.112 660.088 428.032C660.088 427.072 660.292 426.268 660.7 425.62C661.132 424.948 661.672 424.408 662.32 424C662.992 423.592 663.748 423.304 664.588 423.136C665.452 422.944 666.316 422.848 667.18 422.848C668.356 422.848 669.508 422.98 670.636 423.244V422.416C670.636 421.912 670.576 421.432 670.456 420.976C670.36 420.496 670.156 420.064 669.844 419.68C669.556 419.296 669.148 418.996 668.62 418.78C668.116 418.54 667.456 418.42 666.64 418.42C665.608 418.42 664.708 418.492 663.94 418.636C663.172 418.78 662.584 418.924 662.176 419.068L661.816 416.62C662.224 416.428 662.896 416.26 663.832 416.116C664.792 415.972 665.812 415.9 666.892 415.9ZM683.524 413.704C682.9 413.704 682.36 413.488 681.904 413.056C681.448 412.624 681.22 412.036 681.22 411.292C681.22 410.548 681.448 409.96 681.904 409.528C682.36 409.096 682.9 408.88 683.524 408.88C684.172 408.88 684.712 409.096 685.144 409.528C685.6 409.96 685.828 410.548 685.828 411.292C685.828 412.036 685.6 412.624 685.144 413.056C684.712 413.488 684.172 413.704 683.524 413.704ZM682.768 418.78H677.944V416.296H685.72V426.556C685.72 428.212 685.948 429.328 686.404 429.904C686.86 430.456 687.544 430.732 688.456 430.732C689.152 430.732 689.788 430.648 690.364 430.48C690.964 430.312 691.432 430.132 691.768 429.94L692.2 432.46C692.056 432.532 691.852 432.628 691.588 432.748C691.324 432.844 691.012 432.94 690.652 433.036C690.316 433.132 689.932 433.216 689.5 433.288C689.092 433.36 688.66 433.396 688.204 433.396C687.148 433.396 686.272 433.252 685.576 432.964C684.88 432.676 684.316 432.244 683.884 431.668C683.476 431.092 683.188 430.384 683.02 429.544C682.852 428.68 682.768 427.684 682.768 426.556V418.78ZM696.556 416.764C697.636 416.5 698.704 416.296 699.76 416.152C700.84 416.008 701.848 415.936 702.784 415.936C705.016 415.936 706.696 416.512 707.824 417.664C708.976 418.816 709.552 420.664 709.552 423.208V433H706.6V423.748C706.6 422.668 706.504 421.792 706.312 421.12C706.12 420.448 705.844 419.932 705.484 419.572C705.148 419.188 704.728 418.924 704.224 418.78C703.744 418.636 703.216 418.564 702.64 418.564C702.16 418.564 701.644 418.6 701.092 418.672C700.564 418.72 700.048 418.792 699.544 418.888V433H696.556V416.764ZM722.548 416.764C722.548 417.652 722.536 418.468 722.512 419.212C722.488 419.956 722.44 420.664 722.368 421.336C722.32 422.008 722.26 422.68 722.188 423.352C722.116 424 722.044 424.684 721.972 425.404H719.92C719.848 424.684 719.776 424 719.704 423.352C719.632 422.68 719.56 422.008 719.488 421.336C719.44 420.664 719.404 419.956 719.38 419.212C719.356 418.468 719.344 417.652 719.344 416.764V410.716H722.548V416.764ZM720.928 433.432C720.28 433.432 719.716 433.216 719.236 432.784C718.756 432.328 718.516 431.728 718.516 430.984C718.516 430.24 718.756 429.652 719.236 429.22C719.716 428.764 720.28 428.536 720.928 428.536C721.6 428.536 722.164 428.764 722.62 429.22C723.1 429.652 723.34 430.24 723.34 430.984C723.34 431.728 723.1 432.328 722.62 432.784C722.164 433.216 721.6 433.432 720.928 433.432Z" fill="#231F20"/>
</svg>
