<svg width="1216" height="356" viewBox="0 0 1216 356" fill="none"
    xmlns="http://www.w3.org/2000/svg">
    <rect width="1216" height="356" rx="24" fill="url(#paint0_linear)" />
    <path
        d="M265.799 157.536C267.207 158.389 268.38 159.605 269.319 161.184C270.3 162.763 270.791 164.875 270.791 167.52C270.791 170.123 269.959 172.491 268.295 174.624C265.223 178.635 260.551 180.64 254.279 180.64C251.548 180.64 248.839 180.256 246.151 179.488C243.505 178.677 241.543 177.867 240.263 177.056L238.343 175.904L241.095 170.4C244.167 171.893 246.94 172.64 249.415 172.64C251.889 172.64 253.127 171.851 253.127 170.272C253.127 169.376 252.636 168.544 251.655 167.776C250.716 166.965 249.543 166.197 248.135 165.472C246.769 164.747 245.383 163.915 243.975 162.976C242.609 161.995 241.436 160.651 240.455 158.944C239.516 157.195 239.047 155.168 239.047 152.864C239.047 148.768 240.604 145.653 243.719 143.52C246.876 141.387 250.673 140.32 255.111 140.32C257.756 140.32 260.231 140.64 262.535 141.28C264.881 141.92 266.545 142.56 267.527 143.2L269.062 144.16L266.567 149.6C264.391 148.661 262.193 148.192 259.975 148.192C257.799 148.192 256.711 149.024 256.711 150.688C256.711 151.584 257.18 152.395 258.119 153.12C259.1 153.845 260.273 154.549 261.639 155.232C263.047 155.872 264.433 156.64 265.799 157.536ZM297.143 180.64C294.754 180.64 292.77 180.085 291.191 178.976C289.783 177.952 288.695 176.907 287.927 175.84L287.095 190.944H276.151L274.295 149.664H288.055L288.759 153.248C288.972 152.907 289.292 152.501 289.719 152.032C290.188 151.52 291.148 150.859 292.599 150.048C294.092 149.195 295.628 148.768 297.207 148.768C298.786 148.768 300.258 149.003 301.623 149.472C303.031 149.941 304.396 150.709 305.719 151.776C307.084 152.8 308.172 154.379 308.983 156.512C309.836 158.645 310.263 161.184 310.263 164.128C310.263 169.504 309.047 173.6 306.615 176.416C304.183 179.232 301.026 180.64 297.143 180.64ZM293.239 157.408C290.423 157.408 289.015 159.968 289.015 165.088C289.015 166.88 289.314 168.459 289.911 169.824C290.551 171.189 291.49 171.872 292.727 171.872C293.964 171.872 294.903 171.424 295.543 170.528C296.524 169.163 297.015 167.349 297.015 165.088C297.015 159.968 295.756 157.408 293.239 157.408ZM329.027 150.56L330.115 150.176L327.939 180H315.843L313.795 150.176C316.227 151.157 318.808 151.648 321.539 151.648C324.312 151.648 326.808 151.285 329.027 150.56ZM321.923 148.832C319.79 148.832 317.998 148.192 316.547 146.912C315.096 145.632 314.371 143.968 314.371 141.92C314.371 139.829 315.075 138.165 316.483 136.928C317.934 135.648 319.726 135.008 321.859 135.008C324.035 135.008 325.848 135.648 327.299 136.928C328.75 138.208 329.475 139.872 329.475 141.92C329.475 143.968 328.75 145.632 327.299 146.912C325.848 148.192 324.056 148.832 321.923 148.832ZM333.663 164.128C333.663 161.184 334.068 158.645 334.879 156.512C335.732 154.379 336.841 152.779 338.207 151.712C340.724 149.749 343.519 148.768 346.591 148.768C348.127 148.768 349.535 149.088 350.815 149.728C352.137 150.325 353.055 150.944 353.567 151.584L354.335 152.48L353.823 138.464H368.415L366.687 180H357.087L355.999 175.84C353.439 178.997 350.281 180.576 346.527 180.576C342.815 180.619 339.743 179.232 337.311 176.416C334.879 173.6 333.663 169.504 333.663 164.128ZM350.687 157.344C348.169 157.344 346.911 159.904 346.911 165.024C346.911 165.963 346.975 166.859 347.103 167.712C347.231 168.565 347.615 169.461 348.255 170.4C348.895 171.339 349.833 171.808 351.071 171.808C352.308 171.808 353.247 171.125 353.887 169.76C354.569 168.352 354.911 166.773 354.911 165.024C354.911 159.904 353.503 157.344 350.687 157.344ZM388.937 180.64C384.115 180.64 380.062 179.253 376.777 176.48C373.534 173.664 371.913 169.547 371.913 164.128C371.913 160.715 372.745 157.813 374.409 155.424C377.438 150.987 382.131 148.768 388.489 148.768C393.353 148.768 397.065 149.749 399.625 151.712C402.185 153.632 403.465 156.299 403.465 159.712C403.465 162.357 402.398 164.512 400.265 166.176C398.174 167.797 395.102 168.608 391.049 168.608C389.385 168.608 387.891 168.48 386.569 168.224L385.865 168.096C386.078 169.632 386.739 170.784 387.849 171.552C389.001 172.277 390.366 172.64 391.945 172.64C394.547 172.64 396.766 171.851 398.601 170.272L402.569 175.072C401.886 175.883 401.075 176.651 400.137 177.376C399.198 178.059 397.705 178.784 395.657 179.552C393.609 180.277 391.369 180.64 388.937 180.64ZM394.121 159.136C394.121 158.283 393.779 157.579 393.097 157.024C392.457 156.469 391.561 156.192 390.409 156.192C389.257 156.192 388.169 156.704 387.145 157.728C386.163 158.752 385.673 159.968 385.673 161.376C386.611 161.803 387.827 162.016 389.321 162.016C390.857 162.016 392.03 161.76 392.841 161.248C393.694 160.693 394.121 159.989 394.121 159.136ZM421.191 153.824C423.452 150.453 426.247 148.768 429.575 148.768C431.153 148.768 432.604 149.152 433.927 149.92L432.391 160.416C430.684 159.221 428.764 158.624 426.631 158.624C424.583 158.624 423.196 159.477 422.471 161.184C422.044 162.251 421.767 163.275 421.639 164.256L420.423 180H408.903L406.983 149.664H419.591L421.191 153.824Z"
        fill="#231F20" />
    <path
        d="M245.664 221C245.12 219.672 244.608 218.472 244.128 217.4C243.648 216.312 243.184 215.296 242.736 214.352C242.304 213.408 241.872 212.52 241.44 211.688C241.008 210.84 240.568 209.992 240.12 209.144V221H238.32V206.144H240.336C240.992 207.344 241.56 208.392 242.04 209.288C242.536 210.184 242.984 211.056 243.384 211.904C243.8 212.736 244.2 213.6 244.584 214.496C244.968 215.376 245.4 216.4 245.88 217.568V206.144H247.68V221H245.664ZM255.216 209.6C256.72 209.6 257.88 210.072 258.696 211.016C259.512 211.944 259.92 213.36 259.92 215.264V215.96H251.952C252.032 217.112 252.408 217.992 253.08 218.6C253.768 219.192 254.728 219.488 255.96 219.488C256.664 219.488 257.264 219.432 257.76 219.32C258.256 219.208 258.632 219.088 258.888 218.96L259.152 220.64C258.912 220.768 258.48 220.904 257.856 221.048C257.232 221.192 256.528 221.264 255.744 221.264C254.784 221.264 253.936 221.12 253.2 220.832C252.48 220.528 251.88 220.12 251.4 219.608C250.92 219.096 250.56 218.488 250.32 217.784C250.08 217.064 249.96 216.288 249.96 215.456C249.96 214.464 250.112 213.6 250.416 212.864C250.72 212.128 251.12 211.52 251.616 211.04C252.112 210.56 252.672 210.2 253.296 209.96C253.92 209.72 254.56 209.6 255.216 209.6ZM257.904 214.352C257.904 213.408 257.656 212.664 257.16 212.12C256.664 211.56 256.008 211.28 255.192 211.28C254.728 211.28 254.304 211.368 253.92 211.544C253.552 211.72 253.232 211.952 252.96 212.24C252.688 212.528 252.472 212.856 252.312 213.224C252.152 213.592 252.048 213.968 252 214.352H257.904ZM272.28 209.864C271.992 210.904 271.664 211.928 271.296 212.936C270.928 213.928 270.552 214.904 270.168 215.864C269.784 216.808 269.392 217.712 268.992 218.576C268.592 219.44 268.208 220.248 267.84 221H266.04C265.288 219.496 264.528 217.784 263.76 215.864C262.992 213.944 262.312 211.944 261.72 209.864H263.88C264.072 210.568 264.288 211.312 264.528 212.096C264.784 212.88 265.048 213.664 265.32 214.448C265.592 215.232 265.864 215.992 266.136 216.728C266.424 217.448 266.704 218.096 266.976 218.672C267.248 218.096 267.528 217.448 267.816 216.728C268.12 215.992 268.416 215.232 268.704 214.448C268.992 213.664 269.264 212.88 269.52 212.096C269.792 211.312 270.024 210.568 270.216 209.864H272.28ZM279.216 209.6C280.72 209.6 281.88 210.072 282.696 211.016C283.512 211.944 283.92 213.36 283.92 215.264V215.96H275.952C276.032 217.112 276.408 217.992 277.08 218.6C277.768 219.192 278.728 219.488 279.96 219.488C280.664 219.488 281.264 219.432 281.76 219.32C282.256 219.208 282.632 219.088 282.888 218.96L283.152 220.64C282.912 220.768 282.48 220.904 281.856 221.048C281.232 221.192 280.528 221.264 279.744 221.264C278.784 221.264 277.936 221.12 277.2 220.832C276.48 220.528 275.88 220.12 275.4 219.608C274.92 219.096 274.56 218.488 274.32 217.784C274.08 217.064 273.96 216.288 273.96 215.456C273.96 214.464 274.112 213.6 274.416 212.864C274.72 212.128 275.12 211.52 275.616 211.04C276.112 210.56 276.672 210.2 277.296 209.96C277.92 209.72 278.56 209.6 279.216 209.6ZM281.904 214.352C281.904 213.408 281.656 212.664 281.16 212.12C280.664 211.56 280.008 211.28 279.192 211.28C278.728 211.28 278.304 211.368 277.92 211.544C277.552 211.72 277.232 211.952 276.96 212.24C276.688 212.528 276.472 212.856 276.312 213.224C276.152 213.592 276.048 213.968 276 214.352H281.904ZM287.568 221V210.464C289.2 209.904 290.848 209.624 292.512 209.624C293.024 209.624 293.512 209.648 293.976 209.696C294.44 209.728 294.952 209.808 295.512 209.936L295.152 211.688C294.64 211.544 294.184 211.456 293.784 211.424C293.4 211.376 292.976 211.352 292.512 211.352C291.536 211.352 290.544 211.488 289.536 211.76V221H287.568ZM317.232 221C316.992 220.456 316.784 219.96 316.608 219.512C316.432 219.064 316.256 218.616 316.08 218.168C315.92 217.72 315.752 217.256 315.576 216.776C315.416 216.28 315.224 215.72 315 215.096C314.776 215.72 314.576 216.28 314.4 216.776C314.224 217.256 314.048 217.72 313.872 218.168C313.712 218.616 313.536 219.064 313.344 219.512C313.168 219.96 312.96 220.456 312.72 221H311.232C310.784 219.032 310.408 217.088 310.104 215.168C309.816 213.232 309.6 211.464 309.456 209.864H311.328C311.376 210.488 311.424 211.104 311.472 211.712C311.536 212.304 311.608 212.928 311.688 213.584C311.768 214.24 311.856 214.952 311.952 215.72C312.064 216.488 312.184 217.352 312.312 218.312C312.568 217.672 312.784 217.112 312.96 216.632C313.136 216.152 313.296 215.696 313.44 215.264C313.584 214.832 313.72 214.392 313.848 213.944C313.992 213.496 314.144 212.992 314.304 212.432H315.792C315.952 212.992 316.096 213.496 316.224 213.944C316.352 214.392 316.488 214.832 316.632 215.264C316.776 215.696 316.928 216.152 317.088 216.632C317.248 217.112 317.448 217.664 317.688 218.288C317.832 217.408 317.96 216.592 318.072 215.84C318.184 215.088 318.28 214.384 318.36 213.728C318.44 213.056 318.512 212.408 318.576 211.784C318.64 211.16 318.696 210.52 318.744 209.864H320.544C320.464 210.664 320.368 211.52 320.256 212.432C320.144 213.344 320.008 214.28 319.848 215.24C319.688 216.2 319.512 217.176 319.32 218.168C319.128 219.144 318.928 220.088 318.72 221H317.232ZM332.04 215.432C332.04 216.312 331.912 217.112 331.656 217.832C331.416 218.536 331.072 219.144 330.624 219.656C330.176 220.168 329.64 220.568 329.016 220.856C328.392 221.128 327.712 221.264 326.976 221.264C326.256 221.264 325.584 221.128 324.96 220.856C324.352 220.568 323.824 220.168 323.376 219.656C322.928 219.144 322.576 218.536 322.32 217.832C322.08 217.112 321.96 216.312 321.96 215.432C321.96 214.552 322.08 213.752 322.32 213.032C322.576 212.312 322.928 211.704 323.376 211.208C323.824 210.696 324.352 210.304 324.96 210.032C325.584 209.744 326.256 209.6 326.976 209.6C327.712 209.6 328.392 209.744 329.016 210.032C329.64 210.304 330.176 210.696 330.624 211.208C331.072 211.704 331.416 212.312 331.656 213.032C331.912 213.752 332.04 214.552 332.04 215.432ZM330 215.432C330 214.168 329.728 213.176 329.184 212.456C328.64 211.72 327.904 211.352 326.976 211.352C326.064 211.352 325.336 211.72 324.792 212.456C324.264 213.176 324 214.168 324 215.432C324 216.68 324.264 217.672 324.792 218.408C325.336 219.128 326.064 219.488 326.976 219.488C327.904 219.488 328.64 219.128 329.184 218.408C329.728 217.672 330 216.68 330 215.432ZM335.568 221V210.464C337.2 209.904 338.848 209.624 340.512 209.624C341.024 209.624 341.512 209.648 341.976 209.696C342.44 209.728 342.952 209.808 343.512 209.936L343.152 211.688C342.64 211.544 342.184 211.456 341.784 211.424C341.4 211.376 340.976 211.352 340.512 211.352C339.536 211.352 338.544 211.488 337.536 211.76V221H335.568ZM347.568 221V210.464C349.2 209.904 350.848 209.624 352.512 209.624C353.024 209.624 353.512 209.648 353.976 209.696C354.44 209.728 354.952 209.808 355.512 209.936L355.152 211.688C354.64 211.544 354.184 211.456 353.784 211.424C353.4 211.376 352.976 211.352 352.512 211.352C351.536 211.352 350.544 211.488 349.536 211.76V221H347.568ZM358.224 223.088C358.368 223.168 358.568 223.232 358.824 223.28C359.096 223.328 359.344 223.352 359.568 223.352C360.352 223.352 360.96 223.176 361.392 222.824C361.84 222.488 362.248 221.928 362.616 221.144C361.72 219.448 360.88 217.632 360.096 215.696C359.312 213.744 358.664 211.8 358.152 209.864H360.312C360.472 210.504 360.656 211.2 360.864 211.952C361.088 212.688 361.336 213.448 361.608 214.232C361.88 215.016 362.168 215.808 362.472 216.608C362.792 217.392 363.128 218.144 363.48 218.864C363.736 218.128 363.976 217.4 364.2 216.68C364.424 215.96 364.632 215.24 364.824 214.52C365.016 213.784 365.208 213.04 365.4 212.288C365.592 211.52 365.792 210.712 366 209.864H368.064C367.552 211.944 366.976 213.96 366.336 215.912C365.712 217.864 365.04 219.672 364.32 221.336C364.048 221.976 363.752 222.528 363.432 222.992C363.128 223.456 362.792 223.84 362.424 224.144C362.056 224.448 361.64 224.672 361.176 224.816C360.712 224.96 360.184 225.032 359.592 225.032C359.288 225.032 358.952 224.992 358.584 224.912C358.232 224.832 357.992 224.76 357.864 224.696L358.224 223.088ZM387.12 219.584C387.616 219.584 388.056 219.568 388.44 219.536C388.84 219.504 389.168 219.464 389.424 219.416V216.104C389.168 216.024 388.856 215.96 388.488 215.912C388.136 215.864 387.76 215.84 387.36 215.84C386.992 215.84 386.632 215.872 386.28 215.936C385.928 215.984 385.616 216.08 385.344 216.224C385.072 216.368 384.848 216.56 384.672 216.8C384.496 217.024 384.408 217.312 384.408 217.664C384.408 218.384 384.648 218.888 385.128 219.176C385.624 219.448 386.288 219.584 387.12 219.584ZM386.928 209.6C387.76 209.6 388.456 209.704 389.016 209.912C389.592 210.12 390.056 210.408 390.408 210.776C390.76 211.144 391.008 211.592 391.152 212.12C391.296 212.648 391.368 213.224 391.368 213.848V220.808C390.904 220.888 390.288 220.984 389.52 221.096C388.768 221.208 387.992 221.264 387.192 221.264C386.584 221.264 385.992 221.208 385.416 221.096C384.84 221 384.328 220.824 383.88 220.568C383.432 220.296 383.072 219.928 382.8 219.464C382.528 219 382.392 218.408 382.392 217.688C382.392 217.048 382.528 216.512 382.8 216.08C383.088 215.632 383.448 215.272 383.88 215C384.328 214.728 384.832 214.536 385.392 214.424C385.968 214.296 386.544 214.232 387.12 214.232C387.904 214.232 388.672 214.32 389.424 214.496V213.944C389.424 213.608 389.384 213.288 389.304 212.984C389.24 212.664 389.104 212.376 388.896 212.12C388.704 211.864 388.432 211.664 388.08 211.52C387.744 211.36 387.304 211.28 386.76 211.28C386.072 211.28 385.472 211.328 384.96 211.424C384.448 211.52 384.056 211.616 383.784 211.712L383.544 210.08C383.816 209.952 384.264 209.84 384.888 209.744C385.528 209.648 386.208 209.6 386.928 209.6ZM396.696 210.272C396.936 210.128 397.28 209.984 397.728 209.84C398.192 209.68 398.704 209.6 399.264 209.6C400.016 209.6 400.688 209.744 401.28 210.032C401.872 210.32 402.368 210.72 402.768 211.232C403.184 211.744 403.496 212.36 403.704 213.08C403.928 213.784 404.04 214.568 404.04 215.432C404.04 216.328 403.912 217.136 403.656 217.856C403.4 218.576 403.04 219.192 402.576 219.704C402.112 220.2 401.552 220.584 400.896 220.856C400.24 221.128 399.512 221.264 398.712 221.264C397.832 221.264 397.048 221.2 396.36 221.072C395.672 220.944 395.12 220.816 394.704 220.688V204.704L396.696 204.368V210.272ZM396.696 219.272C397 219.352 397.304 219.416 397.608 219.464C397.912 219.496 398.2 219.512 398.472 219.512C399.576 219.512 400.44 219.176 401.064 218.504C401.688 217.816 402 216.792 402 215.432C402 214.856 401.944 214.32 401.832 213.824C401.72 213.312 401.544 212.88 401.304 212.528C401.064 212.16 400.752 211.872 400.368 211.664C400 211.456 399.552 211.352 399.024 211.352C398.56 211.352 398.112 211.448 397.68 211.64C397.248 211.816 396.92 212.008 396.696 212.216V219.272ZM416.04 215.432C416.04 216.312 415.912 217.112 415.656 217.832C415.416 218.536 415.072 219.144 414.624 219.656C414.176 220.168 413.64 220.568 413.016 220.856C412.392 221.128 411.712 221.264 410.976 221.264C410.256 221.264 409.584 221.128 408.96 220.856C408.352 220.568 407.824 220.168 407.376 219.656C406.928 219.144 406.576 218.536 406.32 217.832C406.08 217.112 405.96 216.312 405.96 215.432C405.96 214.552 406.08 213.752 406.32 213.032C406.576 212.312 406.928 211.704 407.376 211.208C407.824 210.696 408.352 210.304 408.96 210.032C409.584 209.744 410.256 209.6 410.976 209.6C411.712 209.6 412.392 209.744 413.016 210.032C413.64 210.304 414.176 210.696 414.624 211.208C415.072 211.704 415.416 212.312 415.656 213.032C415.912 213.752 416.04 214.552 416.04 215.432ZM414 215.432C414 214.168 413.728 213.176 413.184 212.456C412.64 211.72 411.904 211.352 410.976 211.352C410.064 211.352 409.336 211.72 408.792 212.456C408.264 213.176 408 214.168 408 215.432C408 216.68 408.264 217.672 408.792 218.408C409.336 219.128 410.064 219.488 410.976 219.488C411.904 219.488 412.64 219.128 413.184 218.408C413.728 217.672 414 216.68 414 215.432ZM427.296 220.688C426.864 220.8 426.288 220.92 425.568 221.048C424.864 221.176 424.032 221.24 423.072 221.24C422.224 221.24 421.52 221.12 420.96 220.88C420.4 220.624 419.944 220.272 419.592 219.824C419.24 219.36 418.992 218.816 418.848 218.192C418.704 217.568 418.632 216.88 418.632 216.128V209.864H420.6V215.696C420.6 217.072 420.8 218.048 421.2 218.624C421.616 219.2 422.304 219.488 423.264 219.488C423.472 219.488 423.68 219.48 423.888 219.464C424.112 219.448 424.32 219.432 424.512 219.416C424.704 219.384 424.872 219.36 425.016 219.344C425.16 219.312 425.256 219.288 425.304 219.272V209.864H427.296V220.688ZM434.832 209.864H439.536V211.52H434.832V216.704C434.832 217.264 434.872 217.72 434.952 218.072C435.032 218.424 435.16 218.712 435.336 218.936C435.528 219.144 435.768 219.288 436.056 219.368C436.344 219.448 436.696 219.488 437.112 219.488C437.688 219.488 438.152 219.44 438.504 219.344C438.856 219.248 439.192 219.12 439.512 218.96L439.8 220.64C439.576 220.736 439.216 220.864 438.72 221.024C438.24 221.184 437.64 221.264 436.92 221.264C436.088 221.264 435.408 221.168 434.88 220.976C434.352 220.784 433.936 220.496 433.632 220.112C433.344 219.728 433.144 219.256 433.032 218.696C432.92 218.12 432.864 217.456 432.864 216.704V211.52H430.512V209.864H432.864V206.744L434.832 206.408V209.864ZM459.12 219.584C459.616 219.584 460.056 219.568 460.44 219.536C460.84 219.504 461.168 219.464 461.424 219.416V216.104C461.168 216.024 460.856 215.96 460.488 215.912C460.136 215.864 459.76 215.84 459.36 215.84C458.992 215.84 458.632 215.872 458.28 215.936C457.928 215.984 457.616 216.08 457.344 216.224C457.072 216.368 456.848 216.56 456.672 216.8C456.496 217.024 456.408 217.312 456.408 217.664C456.408 218.384 456.648 218.888 457.128 219.176C457.624 219.448 458.288 219.584 459.12 219.584ZM458.928 209.6C459.76 209.6 460.456 209.704 461.016 209.912C461.592 210.12 462.056 210.408 462.408 210.776C462.76 211.144 463.008 211.592 463.152 212.12C463.296 212.648 463.368 213.224 463.368 213.848V220.808C462.904 220.888 462.288 220.984 461.52 221.096C460.768 221.208 459.992 221.264 459.192 221.264C458.584 221.264 457.992 221.208 457.416 221.096C456.84 221 456.328 220.824 455.88 220.568C455.432 220.296 455.072 219.928 454.8 219.464C454.528 219 454.392 218.408 454.392 217.688C454.392 217.048 454.528 216.512 454.8 216.08C455.088 215.632 455.448 215.272 455.88 215C456.328 214.728 456.832 214.536 457.392 214.424C457.968 214.296 458.544 214.232 459.12 214.232C459.904 214.232 460.672 214.32 461.424 214.496V213.944C461.424 213.608 461.384 213.288 461.304 212.984C461.24 212.664 461.104 212.376 460.896 212.12C460.704 211.864 460.432 211.664 460.08 211.52C459.744 211.36 459.304 211.28 458.76 211.28C458.072 211.28 457.472 211.328 456.96 211.424C456.448 211.52 456.056 211.616 455.784 211.712L455.544 210.08C455.816 209.952 456.264 209.84 456.888 209.744C457.528 209.648 458.208 209.6 458.928 209.6ZM473.424 218.216C473.424 217.816 473.256 217.488 472.92 217.232C472.6 216.976 472.192 216.752 471.696 216.56C471.216 216.368 470.688 216.184 470.112 216.008C469.536 215.816 469 215.584 468.504 215.312C468.024 215.04 467.616 214.704 467.28 214.304C466.96 213.904 466.8 213.384 466.8 212.744C466.8 211.848 467.16 211.104 467.88 210.512C468.616 209.904 469.76 209.6 471.312 209.6C471.92 209.6 472.544 209.648 473.184 209.744C473.84 209.824 474.4 209.936 474.864 210.08L474.504 211.856C474.376 211.792 474.2 211.728 473.976 211.664C473.752 211.584 473.496 211.52 473.208 211.472C472.92 211.408 472.608 211.36 472.272 211.328C471.952 211.296 471.64 211.28 471.336 211.28C469.608 211.28 468.744 211.752 468.744 212.696C468.744 213.032 468.904 213.32 469.224 213.56C469.56 213.784 469.976 213.992 470.472 214.184C470.968 214.376 471.504 214.576 472.08 214.784C472.656 214.976 473.192 215.216 473.688 215.504C474.184 215.792 474.592 216.144 474.912 216.56C475.248 216.96 475.416 217.472 475.416 218.096C475.416 219.104 475.024 219.888 474.24 220.448C473.456 220.992 472.216 221.264 470.52 221.264C469.752 221.264 469.048 221.2 468.408 221.072C467.768 220.944 467.16 220.752 466.584 220.496L466.968 218.696C467.528 218.952 468.112 219.168 468.72 219.344C469.344 219.504 470.008 219.584 470.712 219.584C472.52 219.584 473.424 219.128 473.424 218.216ZM485.424 218.216C485.424 217.816 485.256 217.488 484.92 217.232C484.6 216.976 484.192 216.752 483.696 216.56C483.216 216.368 482.688 216.184 482.112 216.008C481.536 215.816 481 215.584 480.504 215.312C480.024 215.04 479.616 214.704 479.28 214.304C478.96 213.904 478.8 213.384 478.8 212.744C478.8 211.848 479.16 211.104 479.88 210.512C480.616 209.904 481.76 209.6 483.312 209.6C483.92 209.6 484.544 209.648 485.184 209.744C485.84 209.824 486.4 209.936 486.864 210.08L486.504 211.856C486.376 211.792 486.2 211.728 485.976 211.664C485.752 211.584 485.496 211.52 485.208 211.472C484.92 211.408 484.608 211.36 484.272 211.328C483.952 211.296 483.64 211.28 483.336 211.28C481.608 211.28 480.744 211.752 480.744 212.696C480.744 213.032 480.904 213.32 481.224 213.56C481.56 213.784 481.976 213.992 482.472 214.184C482.968 214.376 483.504 214.576 484.08 214.784C484.656 214.976 485.192 215.216 485.688 215.504C486.184 215.792 486.592 216.144 486.912 216.56C487.248 216.96 487.416 217.472 487.416 218.096C487.416 219.104 487.024 219.888 486.24 220.448C485.456 220.992 484.216 221.264 482.52 221.264C481.752 221.264 481.048 221.2 480.408 221.072C479.768 220.944 479.16 220.752 478.584 220.496L478.968 218.696C479.528 218.952 480.112 219.168 480.72 219.344C481.344 219.504 482.008 219.584 482.712 219.584C484.52 219.584 485.424 219.128 485.424 218.216ZM495.216 209.6C496.72 209.6 497.88 210.072 498.696 211.016C499.512 211.944 499.92 213.36 499.92 215.264V215.96H491.952C492.032 217.112 492.408 217.992 493.08 218.6C493.768 219.192 494.728 219.488 495.96 219.488C496.664 219.488 497.264 219.432 497.76 219.32C498.256 219.208 498.632 219.088 498.888 218.96L499.152 220.64C498.912 220.768 498.48 220.904 497.856 221.048C497.232 221.192 496.528 221.264 495.744 221.264C494.784 221.264 493.936 221.12 493.2 220.832C492.48 220.528 491.88 220.12 491.4 219.608C490.92 219.096 490.56 218.488 490.32 217.784C490.08 217.064 489.96 216.288 489.96 215.456C489.96 214.464 490.112 213.6 490.416 212.864C490.72 212.128 491.12 211.52 491.616 211.04C492.112 210.56 492.672 210.2 493.296 209.96C493.92 209.72 494.56 209.6 495.216 209.6ZM497.904 214.352C497.904 213.408 497.656 212.664 497.16 212.12C496.664 211.56 496.008 211.28 495.192 211.28C494.728 211.28 494.304 211.368 493.92 211.544C493.552 211.72 493.232 211.952 492.96 212.24C492.688 212.528 492.472 212.856 492.312 213.224C492.152 213.592 492.048 213.968 492 214.352H497.904ZM506.832 209.864H511.536V211.52H506.832V216.704C506.832 217.264 506.872 217.72 506.952 218.072C507.032 218.424 507.16 218.712 507.336 218.936C507.528 219.144 507.768 219.288 508.056 219.368C508.344 219.448 508.696 219.488 509.112 219.488C509.688 219.488 510.152 219.44 510.504 219.344C510.856 219.248 511.192 219.12 511.512 218.96L511.8 220.64C511.576 220.736 511.216 220.864 510.72 221.024C510.24 221.184 509.64 221.264 508.92 221.264C508.088 221.264 507.408 221.168 506.88 220.976C506.352 220.784 505.936 220.496 505.632 220.112C505.344 219.728 505.144 219.256 505.032 218.696C504.92 218.12 504.864 217.456 504.864 216.704V211.52H502.512V209.864H504.864V206.744L506.832 206.408V209.864ZM521.424 218.216C521.424 217.816 521.256 217.488 520.92 217.232C520.6 216.976 520.192 216.752 519.696 216.56C519.216 216.368 518.688 216.184 518.112 216.008C517.536 215.816 517 215.584 516.504 215.312C516.024 215.04 515.616 214.704 515.28 214.304C514.96 213.904 514.8 213.384 514.8 212.744C514.8 211.848 515.16 211.104 515.88 210.512C516.616 209.904 517.76 209.6 519.312 209.6C519.92 209.6 520.544 209.648 521.184 209.744C521.84 209.824 522.4 209.936 522.864 210.08L522.504 211.856C522.376 211.792 522.2 211.728 521.976 211.664C521.752 211.584 521.496 211.52 521.208 211.472C520.92 211.408 520.608 211.36 520.272 211.328C519.952 211.296 519.64 211.28 519.336 211.28C517.608 211.28 516.744 211.752 516.744 212.696C516.744 213.032 516.904 213.32 517.224 213.56C517.56 213.784 517.976 213.992 518.472 214.184C518.968 214.376 519.504 214.576 520.08 214.784C520.656 214.976 521.192 215.216 521.688 215.504C522.184 215.792 522.592 216.144 522.912 216.56C523.248 216.96 523.416 217.472 523.416 218.096C523.416 219.104 523.024 219.888 522.24 220.448C521.456 220.992 520.216 221.264 518.52 221.264C517.752 221.264 517.048 221.2 516.408 221.072C515.768 220.944 515.16 220.752 514.584 220.496L514.968 218.696C515.528 218.952 516.112 219.168 516.72 219.344C517.344 219.504 518.008 219.584 518.712 219.584C520.52 219.584 521.424 219.128 521.424 218.216ZM543.12 219.584C543.616 219.584 544.056 219.568 544.44 219.536C544.84 219.504 545.168 219.464 545.424 219.416V216.104C545.168 216.024 544.856 215.96 544.488 215.912C544.136 215.864 543.76 215.84 543.36 215.84C542.992 215.84 542.632 215.872 542.28 215.936C541.928 215.984 541.616 216.08 541.344 216.224C541.072 216.368 540.848 216.56 540.672 216.8C540.496 217.024 540.408 217.312 540.408 217.664C540.408 218.384 540.648 218.888 541.128 219.176C541.624 219.448 542.288 219.584 543.12 219.584ZM542.928 209.6C543.76 209.6 544.456 209.704 545.016 209.912C545.592 210.12 546.056 210.408 546.408 210.776C546.76 211.144 547.008 211.592 547.152 212.12C547.296 212.648 547.368 213.224 547.368 213.848V220.808C546.904 220.888 546.288 220.984 545.52 221.096C544.768 221.208 543.992 221.264 543.192 221.264C542.584 221.264 541.992 221.208 541.416 221.096C540.84 221 540.328 220.824 539.88 220.568C539.432 220.296 539.072 219.928 538.8 219.464C538.528 219 538.392 218.408 538.392 217.688C538.392 217.048 538.528 216.512 538.8 216.08C539.088 215.632 539.448 215.272 539.88 215C540.328 214.728 540.832 214.536 541.392 214.424C541.968 214.296 542.544 214.232 543.12 214.232C543.904 214.232 544.672 214.32 545.424 214.496V213.944C545.424 213.608 545.384 213.288 545.304 212.984C545.24 212.664 545.104 212.376 544.896 212.12C544.704 211.864 544.432 211.664 544.08 211.52C543.744 211.36 543.304 211.28 542.76 211.28C542.072 211.28 541.472 211.328 540.96 211.424C540.448 211.52 540.056 211.616 539.784 211.712L539.544 210.08C539.816 209.952 540.264 209.84 540.888 209.744C541.528 209.648 542.208 209.6 542.928 209.6ZM557.304 219.968C557.08 220.096 556.736 220.232 556.272 220.376C555.808 220.52 555.272 220.592 554.664 220.592C554.008 220.592 553.392 220.488 552.816 220.28C552.256 220.056 551.76 219.728 551.328 219.296C550.912 218.848 550.576 218.288 550.32 217.616C550.08 216.928 549.96 216.12 549.96 215.192C549.96 214.376 550.072 213.632 550.296 212.96C550.536 212.272 550.872 211.68 551.304 211.184C551.752 210.688 552.296 210.304 552.936 210.032C553.576 209.744 554.304 209.6 555.12 209.6C556.08 209.6 556.896 209.672 557.568 209.816C558.256 209.944 558.832 210.072 559.296 210.2V220.136C559.296 221.864 558.856 223.112 557.976 223.88C557.112 224.648 555.8 225.032 554.04 225.032C553.32 225.032 552.664 224.976 552.072 224.864C551.496 224.752 550.984 224.616 550.536 224.456L550.896 222.704C551.312 222.88 551.784 223.024 552.312 223.136C552.856 223.248 553.448 223.304 554.088 223.304C555.24 223.304 556.064 223.072 556.56 222.608C557.056 222.144 557.304 221.392 557.304 220.352V219.968ZM557.304 211.616C557.112 211.552 556.848 211.496 556.512 211.448C556.176 211.384 555.72 211.352 555.144 211.352C554.12 211.352 553.336 211.704 552.792 212.408C552.264 213.112 552 214.048 552 215.216C552 215.856 552.072 216.408 552.216 216.872C552.376 217.32 552.584 217.696 552.84 218C553.112 218.288 553.416 218.504 553.752 218.648C554.088 218.776 554.448 218.84 554.832 218.84C555.328 218.84 555.792 218.768 556.224 218.624C556.672 218.48 557.032 218.312 557.304 218.12V211.616ZM567.12 219.584C567.616 219.584 568.056 219.568 568.44 219.536C568.84 219.504 569.168 219.464 569.424 219.416V216.104C569.168 216.024 568.856 215.96 568.488 215.912C568.136 215.864 567.76 215.84 567.36 215.84C566.992 215.84 566.632 215.872 566.28 215.936C565.928 215.984 565.616 216.08 565.344 216.224C565.072 216.368 564.848 216.56 564.672 216.8C564.496 217.024 564.408 217.312 564.408 217.664C564.408 218.384 564.648 218.888 565.128 219.176C565.624 219.448 566.288 219.584 567.12 219.584ZM566.928 209.6C567.76 209.6 568.456 209.704 569.016 209.912C569.592 210.12 570.056 210.408 570.408 210.776C570.76 211.144 571.008 211.592 571.152 212.12C571.296 212.648 571.368 213.224 571.368 213.848V220.808C570.904 220.888 570.288 220.984 569.52 221.096C568.768 221.208 567.992 221.264 567.192 221.264C566.584 221.264 565.992 221.208 565.416 221.096C564.84 221 564.328 220.824 563.88 220.568C563.432 220.296 563.072 219.928 562.8 219.464C562.528 219 562.392 218.408 562.392 217.688C562.392 217.048 562.528 216.512 562.8 216.08C563.088 215.632 563.448 215.272 563.88 215C564.328 214.728 564.832 214.536 565.392 214.424C565.968 214.296 566.544 214.232 567.12 214.232C567.904 214.232 568.672 214.32 569.424 214.496V213.944C569.424 213.608 569.384 213.288 569.304 212.984C569.24 212.664 569.104 212.376 568.896 212.12C568.704 211.864 568.432 211.664 568.08 211.52C567.744 211.36 567.304 211.28 566.76 211.28C566.072 211.28 565.472 211.328 564.96 211.424C564.448 211.52 564.056 211.616 563.784 211.712L563.544 210.08C563.816 209.952 564.264 209.84 564.888 209.744C565.528 209.648 566.208 209.6 566.928 209.6ZM578.016 208.136C577.6 208.136 577.24 207.992 576.936 207.704C576.632 207.416 576.48 207.024 576.48 206.528C576.48 206.032 576.632 205.64 576.936 205.352C577.24 205.064 577.6 204.92 578.016 204.92C578.448 204.92 578.808 205.064 579.096 205.352C579.4 205.64 579.552 206.032 579.552 206.528C579.552 207.024 579.4 207.416 579.096 207.704C578.808 207.992 578.448 208.136 578.016 208.136ZM577.512 211.52H574.296V209.864H579.48V216.704C579.48 217.808 579.632 218.552 579.936 218.936C580.24 219.304 580.696 219.488 581.304 219.488C581.768 219.488 582.192 219.432 582.576 219.32C582.976 219.208 583.288 219.088 583.512 218.96L583.8 220.64C583.704 220.688 583.568 220.752 583.392 220.832C583.216 220.896 583.008 220.96 582.768 221.024C582.544 221.088 582.288 221.144 582 221.192C581.728 221.24 581.44 221.264 581.136 221.264C580.432 221.264 579.848 221.168 579.384 220.976C578.92 220.784 578.544 220.496 578.256 220.112C577.984 219.728 577.792 219.256 577.68 218.696C577.568 218.12 577.512 217.456 577.512 216.704V211.52ZM586.704 210.176C587.424 210 588.136 209.864 588.84 209.768C589.56 209.672 590.232 209.624 590.856 209.624C592.344 209.624 593.464 210.008 594.216 210.776C594.984 211.544 595.368 212.776 595.368 214.472V221H593.4V214.832C593.4 214.112 593.336 213.528 593.208 213.08C593.08 212.632 592.896 212.288 592.656 212.048C592.432 211.792 592.152 211.616 591.816 211.52C591.496 211.424 591.144 211.376 590.76 211.376C590.44 211.376 590.096 211.4 589.728 211.448C589.376 211.48 589.032 211.528 588.696 211.592V221H586.704V210.176ZM604.032 210.176C604.032 210.768 604.024 211.312 604.008 211.808C603.992 212.304 603.96 212.776 603.912 213.224C603.88 213.672 603.84 214.12 603.792 214.568C603.744 215 603.696 215.456 603.648 215.936H602.28C602.232 215.456 602.184 215 602.136 214.568C602.088 214.12 602.04 213.672 601.992 213.224C601.96 212.776 601.936 212.304 601.92 211.808C601.904 211.312 601.896 210.768 601.896 210.176V206.144H604.032V210.176ZM602.952 221.288C602.52 221.288 602.144 221.144 601.824 220.856C601.504 220.552 601.344 220.152 601.344 219.656C601.344 219.16 601.504 218.768 601.824 218.48C602.144 218.176 602.52 218.024 602.952 218.024C603.4 218.024 603.776 218.176 604.08 218.48C604.4 218.768 604.56 219.16 604.56 219.656C604.56 220.152 604.4 220.552 604.08 220.856C603.776 221.144 603.4 221.288 602.952 221.288Z"
        fill="#231F20" />
    <path fill-rule="evenodd" clip-rule="evenodd"
        d="M121.199 120.316C122.427 121.339 122.593 123.164 121.57 124.391C116.653 130.292 114.6 137.784 114.12 144.958C113.718 150.962 114.432 156.553 115.341 160.427H142.343C143.941 160.427 145.237 161.722 145.237 163.32C145.237 164.919 143.941 166.214 142.343 166.214H113.116C111.839 166.214 110.713 165.377 110.345 164.154C109.025 159.767 107.816 152.486 108.346 144.572C108.876 136.656 111.166 127.836 117.124 120.687C118.147 119.459 119.972 119.293 121.199 120.316ZM186.843 120.316C188.071 119.293 189.895 119.459 190.918 120.687C196.876 127.836 199.167 136.656 199.696 144.572C200.226 152.486 199.017 159.767 197.697 164.154C197.329 165.377 196.203 166.214 194.926 166.214H165.699C164.101 166.214 162.806 164.919 162.806 163.32C162.806 161.722 164.101 160.427 165.699 160.427H192.702C193.61 156.553 194.324 150.962 193.922 144.958C193.442 137.784 191.39 130.292 186.472 124.391C185.449 123.164 185.615 121.339 186.843 120.316ZM135.163 123.163C136.32 124.265 136.365 126.097 135.262 127.254C132.088 130.585 130.15 135.246 129.071 139.939C128.246 143.532 127.962 146.974 127.953 149.53L145.247 154.182C146.79 154.598 147.705 156.185 147.29 157.728C146.875 159.272 145.287 160.186 143.744 159.771L124.373 154.56C123.178 154.239 122.32 153.194 122.237 151.959C122.03 148.879 122.224 143.893 123.431 138.642C124.633 133.413 126.906 127.633 131.072 123.262C132.175 122.105 134.007 122.06 135.163 123.163ZM172.879 123.163C174.036 122.06 175.867 122.105 176.97 123.262C181.136 127.633 183.409 133.413 184.611 138.642C185.818 143.893 186.012 148.879 185.805 151.959C185.722 153.194 184.864 154.239 183.67 154.56L164.298 159.771C162.755 160.186 161.168 159.272 160.753 157.728C160.337 156.185 161.252 154.598 162.795 154.182L180.09 149.53C180.08 146.974 179.797 143.532 178.971 139.939C177.892 135.246 175.955 130.585 172.78 127.254C171.678 126.097 171.722 124.265 172.879 123.163ZM146.019 170.89C146.156 172.482 144.975 173.884 143.383 174.02L109.764 176.902C107.934 185.428 107.27 203.172 117.026 218.401C117.888 219.746 117.496 221.536 116.15 222.398C114.804 223.26 113.015 222.868 112.153 221.522C100.42 203.209 102.258 181.923 104.668 173.408C104.996 172.25 106.006 171.415 107.205 171.313L142.889 168.254C144.481 168.117 145.883 169.298 146.019 170.89ZM162.023 170.89C162.16 169.298 163.561 168.117 165.153 168.254L200.837 171.313C202.036 171.415 203.047 172.25 203.374 173.408C205.784 181.923 207.622 203.209 195.89 221.522C195.028 222.868 193.238 223.26 191.892 222.398C190.547 221.536 190.155 219.746 191.017 218.401C200.772 203.172 200.108 185.428 198.278 176.902L164.659 174.02C163.067 173.884 161.887 172.482 162.023 170.89ZM147.373 180.69C147.54 182.279 146.388 183.703 144.798 183.87L127.35 185.707C126.837 188.193 126.602 192.622 127.665 199.05C128.995 207.093 132.32 218.021 139.363 231.661C140.097 233.081 139.54 234.827 138.12 235.56C136.7 236.293 134.954 235.736 134.221 234.316C126.945 220.226 123.398 208.723 121.955 199.995C120.53 191.379 121.115 185.203 122.444 181.94C122.847 180.952 123.76 180.266 124.821 180.154L144.193 178.115C145.782 177.947 147.206 179.1 147.373 180.69ZM160.669 180.69C160.836 179.1 162.26 177.947 163.85 178.115L183.221 180.154C184.282 180.266 185.195 180.952 185.598 181.94C186.927 185.203 187.512 191.379 186.087 199.995C184.644 208.723 181.097 220.226 173.821 234.316C173.088 235.736 171.342 236.293 169.922 235.56C168.502 234.827 167.946 233.081 168.679 231.661C175.722 218.021 179.047 207.093 180.378 199.05C181.441 192.622 181.205 188.193 180.692 185.707L163.244 183.87C161.655 183.703 160.502 182.279 160.669 180.69Z"
        fill="#231F20" />
    <path
        d="M143.25 162.541C143.25 158.279 146.704 154.824 150.966 154.824H156.83C161.092 154.824 164.547 158.279 164.547 162.541V172.257C164.547 176.518 161.092 179.973 156.83 179.973H150.966C146.704 179.973 143.25 176.518 143.25 172.257V162.541Z"
        fill="#2D9CDB" />
    <path fill-rule="evenodd" clip-rule="evenodd"
        d="M140.496 162.567C140.496 156.708 145.246 151.957 151.106 151.957H156.97C162.83 151.957 167.58 156.708 167.58 162.567V172.283C167.58 178.143 162.83 182.893 156.97 182.893H151.106C145.246 182.893 140.496 178.143 140.496 172.283V162.567ZM151.106 157.745C148.443 157.745 146.283 159.904 146.283 162.567V172.283C146.283 174.947 148.443 177.106 151.106 177.106H156.97C159.634 177.106 161.793 174.947 161.793 172.283V162.567C161.793 159.904 159.634 157.745 156.97 157.745H151.106Z"
        fill="#231F20" />
    <path
        d="M170.454 198.766C170.454 207.838 163.1 215.192 154.028 215.192C144.957 215.192 137.603 207.838 137.603 198.766C137.603 189.695 144.957 182.341 154.028 182.341C163.1 182.341 170.454 189.695 170.454 198.766Z"
        fill="#FBA026" />
    <path fill-rule="evenodd" clip-rule="evenodd"
        d="M176.242 198.767C176.242 211.035 166.297 220.98 154.029 220.98C141.761 220.98 131.815 211.035 131.815 198.767C131.815 186.499 141.761 176.553 154.029 176.553C166.297 176.553 176.242 186.499 176.242 198.767ZM154.029 215.192C163.1 215.192 170.454 207.838 170.454 198.767C170.454 189.695 163.1 182.341 154.029 182.341C144.957 182.341 137.603 189.695 137.603 198.767C137.603 207.838 144.957 215.192 154.029 215.192Z"
        fill="#231F20" />
    <path
        d="M146.647 149.273C146.647 147.834 147.814 146.668 149.253 146.668C150.692 146.668 151.858 147.834 151.858 149.273V152.445C151.858 153.884 150.692 155.051 149.253 155.051C147.814 155.051 146.647 153.884 146.647 152.445V149.273Z"
        fill="#231F20" />
    <path
        d="M155.937 149.273C155.937 147.834 157.103 146.668 158.542 146.668C159.981 146.668 161.148 147.834 161.148 149.273V152.445C161.148 153.884 159.981 155.051 158.542 155.051C157.103 155.051 155.937 153.884 155.937 152.445V149.273Z"
        fill="#231F20" />
    <path fill-rule="evenodd" clip-rule="evenodd"
        d="M161.456 203.622C162.471 204.855 162.295 206.679 161.061 207.695C159.827 208.711 158.282 209.28 157.084 209.606C155.838 209.947 154.64 210.113 153.852 210.162C152.257 210.262 150.883 209.049 150.783 207.454C150.683 205.859 151.896 204.486 153.491 204.386C153.91 204.36 154.717 204.254 155.56 204.024C156.45 203.78 157.076 203.48 157.382 203.228C158.616 202.212 160.44 202.388 161.456 203.622Z"
        fill="#231F20" />
    <path
        d="M165.339 198.381C165.339 199.789 164.198 200.93 162.791 200.93C161.383 200.93 160.242 199.789 160.242 198.381C160.242 196.973 161.383 195.832 162.791 195.832C164.198 195.832 165.339 196.973 165.339 198.381Z"
        fill="#231F20" />
    <g filter="url(#filter0_d)">
        <circle cx="1161" cy="303" r="32" fill="white" />
    </g>
    <path
        d="M1152.74 294.737L1150.36 292.357L1150.37 309.557L1150.4 310.361C1150.41 310.739 1150.48 311.166 1150.59 311.608L1169.45 318.257L1174.16 316.169L1174.16 316.163L1152.74 294.737Z"
        fill="#00D2B8" />
    <path
        d="M1150.59 311.61L1150.59 311.611C1150.59 311.603 1150.59 311.594 1150.59 311.586C1150.59 311.594 1150.59 311.602 1150.59 311.61ZM1174.16 316.17L1169.45 318.258L1150.59 311.611C1150.95 312.993 1151.75 314.546 1152.61 315.395L1158.76 321.513L1172.44 321.531L1174.16 316.164L1174.16 316.17Z"
        fill="#55DDCA" />
    <path
        d="M1143.03 303.426C1142.42 304.076 1142.72 305.418 1143.7 306.406L1147.93 310.672L1150.59 311.608C1150.48 311.166 1150.41 310.739 1150.39 310.361L1150.37 309.557L1150.36 292.357L1143.03 303.426Z"
        fill="#0081C6" />
    <path
        d="M1169.6 292.578C1169.16 292.465 1168.74 292.395 1168.35 292.383L1167.5 292.354L1150.36 292.356L1174.17 316.163H1174.17L1176.26 311.445L1169.6 292.578Z"
        fill="#0079B3" />
    <path
        d="M1169.58 292.574C1169.59 292.576 1169.6 292.578 1169.6 292.579L1169.6 292.578C1169.6 292.576 1169.59 292.576 1169.58 292.574ZM1173.38 294.598C1172.52 293.727 1170.99 292.935 1169.6 292.579L1176.26 311.445L1174.17 316.163H1174.16L1179.27 314.531L1179.28 300.522L1173.38 294.598Z"
        fill="#00A4E4" />
    <path
        d="M1168.67 289.934L1164.41 285.701C1163.42 284.724 1162.08 284.419 1161.43 285.027L1150.36 292.356L1167.5 292.354L1168.35 292.383C1168.74 292.395 1169.16 292.465 1169.6 292.578L1168.67 289.934Z"
        fill="#00D2B8" />
    <rect x="674" y="130" width="449" height="99" rx="8" fill="#151818" />
    <path
        d="M694.69 196.701C695.14 196.701 695.524 196.791 695.842 196.971C696.16 197.151 696.442 197.361 696.688 197.601C696.94 197.841 697.18 198.051 697.408 198.231C697.636 198.411 697.888 198.501 698.164 198.501C698.536 198.501 698.863 198.36 699.145 198.078C699.427 197.79 699.685 197.43 699.919 196.998L701.08 197.574C700.894 197.952 700.669 198.324 700.405 198.69C700.147 199.056 699.832 199.359 699.46 199.599C699.088 199.833 698.638 199.95 698.11 199.95C697.69 199.95 697.324 199.86 697.012 199.68C696.7 199.5 696.415 199.29 696.157 199.05C695.905 198.81 695.659 198.6 695.419 198.42C695.179 198.24 694.918 198.15 694.636 198.15C694.252 198.15 693.922 198.294 693.646 198.582C693.37 198.864 693.115 199.221 692.881 199.653L691.72 199.086C691.906 198.714 692.128 198.345 692.386 197.979C692.644 197.607 692.959 197.301 693.331 197.061C693.703 196.821 694.156 196.701 694.69 196.701Z"
        fill="#55DDCA" />
    <path
        d="M704.052 205.881L702.666 205.26L710.352 189.411L711.72 190.068L704.052 205.881ZM811.982 205.881L810.596 205.26L818.282 189.411L819.65 190.068L811.982 205.881ZM830.101 191.598L830.803 204H829.129L828.778 197.709C828.748 197.121 828.727 196.536 828.715 195.954C828.703 195.372 828.697 194.841 828.697 194.361C828.703 193.875 828.712 193.488 828.724 193.2L826.744 201.795H825.07L822.946 193.2C822.964 193.476 822.976 193.866 822.982 194.37C822.994 194.874 822.997 195.423 822.991 196.017C822.991 196.605 822.982 197.169 822.964 197.709L822.667 204H821.029L821.731 191.598H824.044L825.952 200.013L827.77 191.598H830.101ZM841.101 194.514L837.789 204.054C837.561 204.726 837.267 205.332 836.907 205.872C836.547 206.418 836.082 206.862 835.512 207.204C834.948 207.546 834.237 207.759 833.379 207.843L833.136 206.502C833.784 206.4 834.297 206.244 834.675 206.034C835.059 205.824 835.359 205.551 835.575 205.215C835.797 204.879 835.995 204.474 836.169 204H835.584L832.317 194.514H834.162L836.745 202.74L839.319 194.514H841.101ZM852.182 195.441C852.182 196.407 851.975 197.187 851.561 197.781C851.153 198.369 850.586 198.798 849.86 199.068C849.134 199.338 848.303 199.473 847.367 199.473H845.819V204H844.028V191.598H847.313C848.825 191.598 850.013 191.913 850.877 192.543C851.747 193.167 852.182 194.133 852.182 195.441ZM850.292 195.459C850.292 194.547 850.028 193.905 849.5 193.533C848.978 193.161 848.306 192.975 847.484 192.975H845.819V198.069H847.457C848.009 198.069 848.498 197.991 848.924 197.835C849.35 197.679 849.683 197.412 849.923 197.034C850.169 196.656 850.292 196.131 850.292 195.459ZM854.704 204V202.722H856.144V195.792H854.704V194.514H857.467L857.782 196.737C858.142 195.951 858.583 195.348 859.105 194.928C859.633 194.502 860.317 194.289 861.157 194.289C861.433 194.289 861.676 194.31 861.886 194.352C862.102 194.394 862.321 194.448 862.543 194.514L862.273 197.844H860.941V195.864H860.932C859.51 195.864 858.49 196.881 857.872 198.915V202.722H859.798V204H854.704ZM869.106 194.289C870.462 194.289 871.491 194.739 872.193 195.639C872.901 196.539 873.255 197.742 873.255 199.248C873.255 200.226 873.093 201.09 872.769 201.84C872.451 202.59 871.983 203.175 871.365 203.595C870.747 204.015 869.988 204.225 869.088 204.225C867.732 204.225 866.697 203.775 865.983 202.875C865.275 201.975 864.921 200.772 864.921 199.266C864.921 198.282 865.08 197.418 865.398 196.674C865.722 195.924 866.193 195.339 866.811 194.919C867.435 194.499 868.2 194.289 869.106 194.289ZM869.106 195.666C868.326 195.666 867.738 195.96 867.342 196.548C866.946 197.13 866.748 198.036 866.748 199.266C866.748 200.484 866.943 201.387 867.333 201.975C867.723 202.557 868.308 202.848 869.088 202.848C869.868 202.848 870.453 202.557 870.843 201.975C871.233 201.387 871.428 200.478 871.428 199.248C871.428 198.024 871.233 197.121 870.843 196.539C870.453 195.957 869.874 195.666 869.106 195.666ZM881.086 189.978C881.446 189.978 881.737 190.089 881.959 190.311C882.181 190.533 882.292 190.803 882.292 191.121C882.292 191.451 882.181 191.73 881.959 191.958C881.737 192.18 881.446 192.291 881.086 192.291C880.738 192.291 880.453 192.18 880.231 191.958C880.015 191.73 879.907 191.451 879.907 191.121C879.907 190.803 880.015 190.533 880.231 190.311C880.453 190.089 880.738 189.978 881.086 189.978ZM882.571 194.514V202.272C882.571 203.382 882.328 204.306 881.842 205.044C881.362 205.788 880.663 206.382 879.745 206.826C878.827 207.276 877.714 207.615 876.406 207.843L876.127 206.511C877.063 206.343 877.885 206.103 878.593 205.791C879.301 205.479 879.853 205.05 880.249 204.504C880.645 203.958 880.843 203.253 880.843 202.389V195.828H876.982V194.514H882.571ZM888.387 199.842C888.435 200.886 888.717 201.645 889.233 202.119C889.755 202.593 890.373 202.83 891.087 202.83C891.561 202.83 891.996 202.758 892.392 202.614C892.788 202.47 893.19 202.26 893.598 201.984L894.381 203.073C893.937 203.427 893.424 203.709 892.842 203.919C892.26 204.123 891.657 204.225 891.033 204.225C890.085 204.225 889.278 204.018 888.612 203.604C887.952 203.184 887.448 202.602 887.1 201.858C886.758 201.114 886.587 200.25 886.587 199.266C886.587 198.312 886.758 197.46 887.1 196.71C887.448 195.96 887.937 195.369 888.567 194.937C889.197 194.505 889.947 194.289 890.817 194.289C892.041 194.289 893.004 194.709 893.706 195.549C894.414 196.383 894.768 197.526 894.768 198.978C894.768 199.14 894.765 199.296 894.759 199.446C894.753 199.596 894.744 199.728 894.732 199.842H888.387ZM890.835 195.639C890.157 195.639 889.596 195.879 889.152 196.359C888.708 196.839 888.453 197.58 888.387 198.582H893.103C893.085 197.622 892.875 196.893 892.473 196.395C892.077 195.891 891.531 195.639 890.835 195.639ZM902.195 202.767C902.657 202.767 903.086 202.692 903.482 202.542C903.884 202.386 904.259 202.185 904.607 201.939L905.435 203.064C905.015 203.412 904.511 203.694 903.923 203.91C903.341 204.12 902.756 204.225 902.168 204.225C901.214 204.225 900.398 204.021 899.72 203.613C899.048 203.205 898.535 202.632 898.181 201.894C897.827 201.156 897.65 200.292 897.65 199.302C897.65 198.342 897.827 197.487 898.181 196.737C898.541 195.981 899.06 195.384 899.738 194.946C900.416 194.508 901.235 194.289 902.195 194.289C903.431 194.289 904.505 194.661 905.417 195.405L904.598 196.53C903.8 195.978 903.002 195.702 902.204 195.702C901.412 195.702 900.764 195.996 900.26 196.584C899.756 197.172 899.504 198.078 899.504 199.302C899.504 200.532 899.756 201.417 900.26 201.957C900.77 202.497 901.415 202.767 902.195 202.767ZM916.282 203.514C915.946 203.73 915.541 203.901 915.067 204.027C914.599 204.159 914.125 204.225 913.645 204.225C912.589 204.225 911.779 203.949 911.215 203.397C910.657 202.845 910.378 202.128 910.378 201.246V195.81H908.227V194.514H910.378V192.372L912.106 192.165V194.514H915.346L915.148 195.81H912.106V201.228C912.106 201.75 912.238 202.143 912.502 202.407C912.772 202.671 913.219 202.803 913.843 202.803C914.191 202.803 914.512 202.764 914.806 202.686C915.106 202.602 915.382 202.491 915.634 202.353L916.282 203.514ZM929.363 205.332L934.025 197.484L929.363 189.636H932.945L937.481 197.484L932.927 205.332H929.363Z"
        fill="#00A4E4" />
    <path
        d="M722.594 197.736C722.594 199.026 722.426 200.082 722.09 200.904C721.754 201.726 721.307 202.362 720.749 202.812C720.197 203.256 719.588 203.565 718.922 203.739C718.256 203.913 717.59 204 716.924 204H713.999V191.598H716.726C717.464 191.598 718.181 191.679 718.877 191.841C719.573 192.003 720.2 192.303 720.758 192.741C721.322 193.173 721.769 193.791 722.099 194.595C722.429 195.399 722.594 196.446 722.594 197.736ZM720.704 197.736C720.704 196.698 720.596 195.864 720.38 195.234C720.17 194.604 719.888 194.13 719.534 193.812C719.18 193.494 718.79 193.281 718.364 193.173C717.944 193.065 717.524 193.011 717.104 193.011H715.781V202.605H717.122C717.56 202.605 717.992 202.536 718.418 202.398C718.844 202.26 719.228 202.014 719.57 201.66C719.918 201.306 720.194 200.811 720.398 200.175C720.602 199.539 720.704 198.726 720.704 197.736ZM728.797 194.289C730.153 194.289 731.182 194.739 731.884 195.639C732.592 196.539 732.946 197.742 732.946 199.248C732.946 200.226 732.784 201.09 732.46 201.84C732.142 202.59 731.674 203.175 731.056 203.595C730.438 204.015 729.679 204.225 728.779 204.225C727.423 204.225 726.388 203.775 725.674 202.875C724.966 201.975 724.612 200.772 724.612 199.266C724.612 198.282 724.771 197.418 725.089 196.674C725.413 195.924 725.884 195.339 726.502 194.919C727.126 194.499 727.891 194.289 728.797 194.289ZM728.797 195.666C728.017 195.666 727.429 195.96 727.033 196.548C726.637 197.13 726.439 198.036 726.439 199.266C726.439 200.484 726.634 201.387 727.024 201.975C727.414 202.557 727.999 202.848 728.779 202.848C729.559 202.848 730.144 202.557 730.534 201.975C730.924 201.387 731.119 200.478 731.119 199.248C731.119 198.024 730.924 197.121 730.534 196.539C730.144 195.957 729.565 195.666 728.797 195.666ZM740.301 202.767C740.763 202.767 741.192 202.692 741.588 202.542C741.99 202.386 742.365 202.185 742.713 201.939L743.541 203.064C743.121 203.412 742.617 203.694 742.029 203.91C741.447 204.12 740.862 204.225 740.274 204.225C739.32 204.225 738.504 204.021 737.826 203.613C737.154 203.205 736.641 202.632 736.287 201.894C735.933 201.156 735.756 200.292 735.756 199.302C735.756 198.342 735.933 197.487 736.287 196.737C736.647 195.981 737.166 195.384 737.844 194.946C738.522 194.508 739.341 194.289 740.301 194.289C741.537 194.289 742.611 194.661 743.523 195.405L742.704 196.53C741.906 195.978 741.108 195.702 740.31 195.702C739.518 195.702 738.87 195.996 738.366 196.584C737.862 197.172 737.61 198.078 737.61 199.302C737.61 200.532 737.862 201.417 738.366 201.957C738.876 202.497 739.521 202.767 740.301 202.767ZM748.412 194.514V201.192C748.412 201.792 748.532 202.224 748.772 202.488C749.018 202.746 749.396 202.875 749.906 202.875C750.386 202.875 750.845 202.734 751.283 202.452C751.727 202.17 752.072 201.834 752.318 201.444V194.514H754.046V204H752.561L752.435 202.749C752.069 203.229 751.613 203.595 751.067 203.847C750.527 204.099 749.978 204.225 749.42 204.225C748.502 204.225 747.815 203.976 747.359 203.478C746.909 202.98 746.684 202.29 746.684 201.408V194.514H748.412ZM763.858 194.289C764.182 194.289 764.485 194.361 764.767 194.505C765.055 194.649 765.286 194.913 765.46 195.297C765.634 195.675 765.721 196.224 765.721 196.944V204H764.146V197.196C764.146 196.644 764.11 196.248 764.038 196.008C763.972 195.762 763.78 195.639 763.462 195.639C763.198 195.639 762.934 195.72 762.67 195.882C762.412 196.044 762.16 196.314 761.914 196.692V204H760.402V197.196C760.402 196.644 760.366 196.248 760.294 196.008C760.228 195.762 760.036 195.639 759.718 195.639C759.448 195.639 759.184 195.72 758.926 195.882C758.668 196.044 758.416 196.314 758.17 196.692V204H756.595V194.514H757.927L758.035 195.576C758.299 195.21 758.59 194.904 758.908 194.658C759.232 194.412 759.625 194.289 760.087 194.289C760.447 194.289 760.78 194.376 761.086 194.55C761.398 194.724 761.626 195.048 761.77 195.522C762.028 195.156 762.322 194.859 762.652 194.631C762.982 194.403 763.384 194.289 763.858 194.289ZM769.665 199.842C769.713 200.886 769.995 201.645 770.511 202.119C771.033 202.593 771.651 202.83 772.365 202.83C772.839 202.83 773.274 202.758 773.67 202.614C774.066 202.47 774.468 202.26 774.876 201.984L775.659 203.073C775.215 203.427 774.702 203.709 774.12 203.919C773.538 204.123 772.935 204.225 772.311 204.225C771.363 204.225 770.556 204.018 769.89 203.604C769.23 203.184 768.726 202.602 768.378 201.858C768.036 201.114 767.865 200.25 767.865 199.266C767.865 198.312 768.036 197.46 768.378 196.71C768.726 195.96 769.215 195.369 769.845 194.937C770.475 194.505 771.225 194.289 772.095 194.289C773.319 194.289 774.282 194.709 774.984 195.549C775.692 196.383 776.046 197.526 776.046 198.978C776.046 199.14 776.043 199.296 776.037 199.446C776.031 199.596 776.022 199.728 776.01 199.842H769.665ZM772.113 195.639C771.435 195.639 770.874 195.879 770.43 196.359C769.986 196.839 769.731 197.58 769.665 198.582H774.381C774.363 197.622 774.153 196.893 773.751 196.395C773.355 195.891 772.809 195.639 772.113 195.639ZM779.063 204V194.514H780.548L780.674 195.792C781.064 195.306 781.538 194.934 782.096 194.676C782.66 194.418 783.221 194.289 783.779 194.289C784.691 194.289 785.363 194.538 785.795 195.036C786.227 195.528 786.443 196.215 786.443 197.097V204H784.715V198.159C784.715 197.559 784.679 197.073 784.607 196.701C784.541 196.329 784.4 196.059 784.184 195.891C783.968 195.717 783.641 195.63 783.203 195.63C782.687 195.63 782.219 195.789 781.799 196.107C781.379 196.425 781.043 196.767 780.791 197.133V204H779.063ZM797.56 203.514C797.224 203.73 796.819 203.901 796.345 204.027C795.877 204.159 795.403 204.225 794.923 204.225C793.867 204.225 793.057 203.949 792.493 203.397C791.935 202.845 791.656 202.128 791.656 201.246V195.81H789.505V194.514H791.656V192.372L793.384 192.165V194.514H796.624L796.426 195.81H793.384V201.228C793.384 201.75 793.516 202.143 793.78 202.407C794.05 202.671 794.497 202.803 795.121 202.803C795.469 202.803 795.79 202.764 796.084 202.686C796.384 202.602 796.66 202.491 796.912 202.353L797.56 203.514ZM803.97 202.848C804.66 202.848 805.203 202.722 805.599 202.47C806.001 202.218 806.202 201.876 806.202 201.444C806.202 201.168 806.148 200.934 806.04 200.742C805.938 200.544 805.722 200.364 805.392 200.202C805.068 200.034 804.576 199.866 803.916 199.698C803.268 199.536 802.704 199.347 802.224 199.131C801.75 198.915 801.381 198.633 801.117 198.285C800.859 197.937 800.73 197.487 800.73 196.935C800.73 196.131 801.066 195.489 801.738 195.009C802.41 194.529 803.301 194.289 804.411 194.289C805.191 194.289 805.869 194.394 806.445 194.604C807.021 194.808 807.513 195.06 807.921 195.36L807.183 196.485C806.817 196.245 806.415 196.047 805.977 195.891C805.545 195.729 805.035 195.648 804.447 195.648C803.745 195.648 803.244 195.756 802.944 195.972C802.65 196.182 802.503 196.461 802.503 196.809C802.503 197.073 802.575 197.292 802.719 197.466C802.869 197.634 803.124 197.79 803.484 197.934C803.844 198.072 804.342 198.228 804.978 198.402C805.596 198.57 806.136 198.768 806.598 198.996C807.06 199.224 807.417 199.524 807.669 199.896C807.927 200.262 808.056 200.745 808.056 201.345C808.056 202.023 807.861 202.575 807.471 203.001C807.081 203.421 806.574 203.73 805.95 203.928C805.332 204.126 804.672 204.225 803.97 204.225C803.106 204.225 802.362 204.099 801.738 203.847C801.12 203.595 800.601 203.286 800.181 202.92L801.135 201.822C801.501 202.128 801.924 202.377 802.404 202.569C802.89 202.755 803.412 202.848 803.97 202.848Z"
        fill="#717171" />
    <path
        d="M1028.19 195.702C1028.52 195.258 1028.91 194.913 1029.36 194.667C1029.82 194.415 1030.32 194.289 1030.85 194.289C1031.69 194.289 1032.37 194.496 1032.89 194.91C1033.41 195.318 1033.8 195.894 1034.04 196.638C1034.28 197.376 1034.4 198.246 1034.4 199.248C1034.4 200.208 1034.25 201.063 1033.96 201.813C1033.68 202.563 1033.25 203.154 1032.69 203.586C1032.14 204.012 1031.45 204.225 1030.63 204.225C1029.55 204.225 1028.7 203.829 1028.09 203.037L1027.98 204H1026.46V190.698L1028.19 190.491V195.702ZM1030.21 202.866C1030.95 202.866 1031.53 202.572 1031.93 201.984C1032.34 201.39 1032.54 200.478 1032.54 199.248C1032.54 198.018 1032.36 197.112 1031.99 196.53C1031.63 195.942 1031.11 195.648 1030.43 195.648C1029.93 195.648 1029.5 195.798 1029.12 196.098C1028.74 196.392 1028.43 196.728 1028.19 197.106V201.696C1028.43 202.056 1028.72 202.341 1029.07 202.551C1029.42 202.761 1029.8 202.866 1030.21 202.866ZM1038.98 194.514V201.192C1038.98 201.792 1039.1 202.224 1039.34 202.488C1039.58 202.746 1039.96 202.875 1040.47 202.875C1040.95 202.875 1041.41 202.734 1041.85 202.452C1042.29 202.17 1042.64 201.834 1042.88 201.444V194.514H1044.61V204H1043.13L1043 202.749C1042.64 203.229 1042.18 203.595 1041.63 203.847C1041.09 204.099 1040.54 204.225 1039.99 204.225C1039.07 204.225 1038.38 203.976 1037.93 203.478C1037.48 202.98 1037.25 202.29 1037.25 201.408V194.514H1038.98ZM1051.72 189.978C1052.08 189.978 1052.37 190.089 1052.59 190.311C1052.81 190.533 1052.92 190.803 1052.92 191.121C1052.92 191.451 1052.81 191.73 1052.59 191.958C1052.37 192.18 1052.08 192.291 1051.72 192.291C1051.37 192.291 1051.08 192.18 1050.86 191.958C1050.64 191.73 1050.54 191.451 1050.54 191.121C1050.54 190.803 1050.64 190.533 1050.86 190.311C1051.08 190.089 1051.37 189.978 1051.72 189.978ZM1053.01 194.514V202.686H1055.65V204H1048.39V202.686H1051.28V195.828H1048.48V194.514H1053.01ZM1062.73 190.698V201.552C1062.73 202.008 1062.87 202.332 1063.16 202.524C1063.44 202.71 1063.8 202.803 1064.25 202.803C1064.53 202.803 1064.79 202.776 1065.05 202.722C1065.3 202.662 1065.56 202.581 1065.8 202.479L1066.25 203.712C1065.99 203.85 1065.66 203.97 1065.26 204.072C1064.87 204.174 1064.42 204.225 1063.92 204.225C1063.03 204.225 1062.32 203.976 1061.79 203.478C1061.27 202.98 1061.01 202.296 1061.01 201.426V192.012H1058.12V190.698H1062.73ZM1075.26 190.491L1076.99 190.698V204H1075.47L1075.33 202.785C1074.65 203.745 1073.76 204.225 1072.64 204.225C1071.83 204.225 1071.15 204.018 1070.62 203.604C1070.09 203.184 1069.7 202.602 1069.44 201.858C1069.18 201.114 1069.05 200.25 1069.05 199.266C1069.05 198.306 1069.2 197.454 1069.49 196.71C1069.79 195.96 1070.22 195.369 1070.77 194.937C1071.33 194.505 1072 194.289 1072.79 194.289C1073.81 194.289 1074.63 194.649 1075.26 195.369V190.491ZM1073.24 195.648C1072.49 195.648 1071.92 195.945 1071.51 196.539C1071.11 197.133 1070.91 198.042 1070.91 199.266C1070.91 200.484 1071.09 201.387 1071.46 201.975C1071.83 202.563 1072.36 202.857 1073.06 202.857C1073.56 202.857 1073.99 202.716 1074.35 202.434C1074.71 202.146 1075.02 201.81 1075.26 201.426V196.791C1075.02 196.431 1074.72 196.152 1074.37 195.954C1074.03 195.75 1073.65 195.648 1073.24 195.648Z"
        fill="white" />
    <path
        d="M954.228 202.848C954.918 202.848 955.461 202.722 955.857 202.47C956.259 202.218 956.46 201.876 956.46 201.444C956.46 201.168 956.406 200.934 956.298 200.742C956.196 200.544 955.98 200.364 955.65 200.202C955.326 200.034 954.834 199.866 954.174 199.698C953.526 199.536 952.962 199.347 952.482 199.131C952.008 198.915 951.639 198.633 951.375 198.285C951.117 197.937 950.988 197.487 950.988 196.935C950.988 196.131 951.324 195.489 951.996 195.009C952.668 194.529 953.559 194.289 954.669 194.289C955.449 194.289 956.127 194.394 956.703 194.604C957.279 194.808 957.771 195.06 958.179 195.36L957.441 196.485C957.075 196.245 956.673 196.047 956.235 195.891C955.803 195.729 955.293 195.648 954.705 195.648C954.003 195.648 953.502 195.756 953.202 195.972C952.908 196.182 952.761 196.461 952.761 196.809C952.761 197.073 952.833 197.292 952.977 197.466C953.127 197.634 953.382 197.79 953.742 197.934C954.102 198.072 954.6 198.228 955.236 198.402C955.854 198.57 956.394 198.768 956.856 198.996C957.318 199.224 957.675 199.524 957.927 199.896C958.185 200.262 958.314 200.745 958.314 201.345C958.314 202.023 958.119 202.575 957.729 203.001C957.339 203.421 956.832 203.73 956.208 203.928C955.59 204.126 954.93 204.225 954.228 204.225C953.364 204.225 952.62 204.099 951.996 203.847C951.378 203.595 950.859 203.286 950.439 202.92L951.393 201.822C951.759 202.128 952.182 202.377 952.662 202.569C953.148 202.755 953.67 202.848 954.228 202.848ZM966.109 194.289C966.949 194.289 967.621 194.496 968.125 194.91C968.629 195.318 968.992 195.894 969.214 196.638C969.436 197.376 969.547 198.246 969.547 199.248C969.547 200.208 969.412 201.063 969.142 201.813C968.872 202.563 968.467 203.154 967.927 203.586C967.387 204.012 966.709 204.225 965.893 204.225C964.873 204.225 964.051 203.865 963.427 203.145V207.636L961.699 207.843V194.514H963.184L963.31 195.792C964.042 194.79 964.975 194.289 966.109 194.289ZM965.668 195.648C965.176 195.648 964.741 195.798 964.363 196.098C963.985 196.392 963.673 196.728 963.427 197.106V201.696C963.667 202.05 963.961 202.329 964.309 202.533C964.657 202.731 965.044 202.83 965.47 202.83C966.214 202.83 966.775 202.542 967.153 201.966C967.531 201.384 967.72 200.478 967.72 199.248C967.72 198.018 967.552 197.112 967.216 196.53C966.88 195.942 966.364 195.648 965.668 195.648ZM976.173 189.978C976.533 189.978 976.821 190.089 977.037 190.311C977.259 190.533 977.37 190.803 977.37 191.121C977.37 191.451 977.259 191.73 977.037 191.958C976.821 192.18 976.533 192.291 976.173 192.291C975.819 192.291 975.531 192.18 975.309 191.958C975.093 191.73 974.985 191.451 974.985 191.121C974.985 190.803 975.093 190.533 975.309 190.311C975.531 190.089 975.819 189.978 976.173 189.978ZM977.46 194.514V202.686H980.097V204H972.843V202.686H975.732V195.828H972.933V194.514H977.46ZM988.919 190.491L990.647 190.698V204H989.126L988.982 202.785C988.31 203.745 987.416 204.225 986.3 204.225C985.484 204.225 984.809 204.018 984.275 203.604C983.747 203.184 983.354 202.602 983.096 201.858C982.838 201.114 982.709 200.25 982.709 199.266C982.709 198.306 982.856 197.454 983.15 196.71C983.45 195.96 983.876 195.369 984.428 194.937C984.986 194.505 985.658 194.289 986.444 194.289C987.464 194.289 988.289 194.649 988.919 195.369V190.491ZM986.894 195.648C986.15 195.648 985.574 195.945 985.166 196.539C984.764 197.133 984.563 198.042 984.563 199.266C984.563 200.484 984.746 201.387 985.112 201.975C985.484 202.563 986.018 202.857 986.714 202.857C987.212 202.857 987.641 202.716 988.001 202.434C988.367 202.146 988.673 201.81 988.919 201.426V196.791C988.673 196.431 988.376 196.152 988.028 195.954C987.686 195.75 987.308 195.648 986.894 195.648ZM995.473 199.842C995.521 200.886 995.803 201.645 996.319 202.119C996.841 202.593 997.459 202.83 998.173 202.83C998.647 202.83 999.082 202.758 999.478 202.614C999.874 202.47 1000.28 202.26 1000.68 201.984L1001.47 203.073C1001.02 203.427 1000.51 203.709 999.928 203.919C999.346 204.123 998.743 204.225 998.119 204.225C997.171 204.225 996.364 204.018 995.698 203.604C995.038 203.184 994.534 202.602 994.186 201.858C993.844 201.114 993.673 200.25 993.673 199.266C993.673 198.312 993.844 197.46 994.186 196.71C994.534 195.96 995.023 195.369 995.653 194.937C996.283 194.505 997.033 194.289 997.903 194.289C999.127 194.289 1000.09 194.709 1000.79 195.549C1001.5 196.383 1001.85 197.526 1001.85 198.978C1001.85 199.14 1001.85 199.296 1001.85 199.446C1001.84 199.596 1001.83 199.728 1001.82 199.842H995.473ZM997.921 195.639C997.243 195.639 996.682 195.879 996.238 196.359C995.794 196.839 995.539 197.58 995.473 198.582H1000.19C1000.17 197.622 999.961 196.893 999.559 196.395C999.163 195.891 998.617 195.639 997.921 195.639ZM1004.96 204V202.722H1006.4V195.792H1004.96V194.514H1007.72L1008.04 196.737C1008.4 195.951 1008.84 195.348 1009.36 194.928C1009.89 194.502 1010.57 194.289 1011.41 194.289C1011.69 194.289 1011.93 194.31 1012.14 194.352C1012.36 194.394 1012.58 194.448 1012.8 194.514L1012.53 197.844H1011.2V195.864H1011.19C1009.77 195.864 1008.75 196.881 1008.13 198.915V202.722H1010.06V204H1004.96Z"
        fill="#00DB2C" />
    <circle cx="700.5" cy="156.5" r="9.5" fill="#FF5F56" />
    <circle cx="731.5" cy="156.5" r="9.5" fill="#FFBD2D" />
    <circle cx="762.5" cy="156.5" r="9.5" fill="#28C93E" />
    <rect x="1079" y="188" width="9" height="19" fill="white" />
    <defs>
        <filter id="filter0_d" x="1114" y="256" width="94" height="94" filterUnits="userSpaceOnUse"
            color-interpolation-filters="sRGB">
            <feFlood flood-opacity="0" result="BackgroundImageFix" />
            <feColorMatrix in="SourceAlpha" type="matrix"
                values="0 0 0 0 0 0 0 0 0 0 0 0 0 0 0 0 0 0 127 0" />
            <feOffset />
            <feGaussianBlur stdDeviation="7.5" />
            <feColorMatrix type="matrix" values="0 0 0 0 0 0 0 0 0 0 0 0 0 0 0 0 0 0 0.12 0" />
            <feBlend mode="normal" in2="BackgroundImageFix" result="effect1_dropShadow" />
            <feBlend mode="normal" in="SourceGraphic" in2="effect1_dropShadow" result="shape" />
        </filter>
        <linearGradient id="paint0_linear" x1="11" y1="349" x2="1216" y2="28.5"
            gradientUnits="userSpaceOnUse">
            <stop stop-color="#F6D369" />
            <stop offset="1" stop-color="#FBEBBA" />
        </linearGradient>
    </defs>
</svg>
